<mxfile host="app.diagrams.net" modified="2022-11-09T09:11:10.423Z" agent="5.0 (Windows NT 10.0; Win64; x64) AppleWebKit/537.36 (KHTML, like Gecko) Chrome/107.0.0.0 Safari/537.36" etag="P6LCpizk8kA_kGXhgOW1" version="20.5.3" type="github">
  <diagram id="k3Jo0uC_nbTrlOhF7C3K" name="StrÃ¡nka-1">
    <mxGraphModel dx="981" dy="548" grid="1" gridSize="15" guides="1" tooltips="1" connect="1" arrows="1" fold="1" page="1" pageScale="1" pageWidth="827" pageHeight="1169" math="0" shadow="0">
      <root>
        <mxCell id="0" />
        <mxCell id="1" parent="0" />
        <mxCell id="gzo2VirUwYGkiK3Seass-1" value="" style="shape=image;verticalLabelPosition=bottom;verticalAlign=top;aspect=fixed;imageAspect=0;image=data:image/png,iVBORw0KGgoAAAANSUhEUgAAAogAAAFtCAYAAACEKJsWAAAAAXNSR0IArs4c6QAAAARnQU1BAACxjwv8YQUAAAAJcEhZcwAADsMAAA7DAcdvqGQAAIQdSURBVHhe7b0PdBzXfd/7U+M+Nj7H8rMbSGyNHvZ5AZxYFePCRhSJCLNrOgGEHEtWQoMoZIVyAaJhIKcvsmQWD2DCw4QEV/Qf+bQxzLzl4km0JBSA2CimXyhsYhhbFqRqwdzYdCUX4LrlKXwEcXPsU/k8u+yxi3d/996ZuXd2ZvYPFksA/H54hpjZmbl/fvfO3N/8fvfPbasCAgAAAAAAQPN39F8AAAAAAAAkUBABAAAAAIAFFEQAAAAAAGABBREAAAAAAFhAQQQAAAAAABZQEAEAAAAAgAUUxK3Iz5Zp+nfvppbmZuo6maMb+uc1szJNAyJMDrdFhOuyco4+eQ//fj8lF2oWGwAAAABuEjVTEAsL05R87KPU/n6tQDR/kLp++zGavqYvWCs/zFP2haP0yd++n9ocJUVsbZ0fpUc/nabcW/o6QPnnP0Ujszdo255RSj3RStv07+tFYf4rlPkh7+VpfPY1+RuoAULRP3f4o7SzeYCmV/RvAAAAQB1Yu4LIjdjQ/dTeO0zjmdeo8GP9O71F+SsZyhf04RpYPj9MXffcTwNHnqPMlbwI2eOt771Gl156ha668Qp+doOWr5yj5488Rl1fNCxdtwA3/uZp+uSfiDy/t5/OPN1NjT+nT6wjDe3d1P0+oYa+q5Ue33OX/hVUzc/EszM7Ro/e9yF6YvK12lmAAQAAgDJZ40oqBTr3u6IRm+UmbBvd1TNEQ32ddNe7hLJwo0D5hUtU2PkIdexQV1cDKzwPdY9RXh7dTvc9/Dh9rCNGDfJY8MM8zWXz9E+eOEIPbNe/sSt09zBleX9gihYPtcqftzw/zlHyt/bROAnlcHqI7r1d/14rblW51osby5T98udp7P8+RzlpkXVI0PELKep26jcAAACwzqzJgvjW+RM0LJXDGPV9+SK9dOwRuve9DXT7u26n27fHqPUja1MORYtJr/y5oxw2yjiePfoIPdB+H93rbCKOoc8YyuGtzNtbaWhmiRZn1kE5BOvPDy/Rc09p5fC93dQdVz8DAAAA9aZ6BfFnr9HzJ89J91fjwAl6fF00krfo+vf1LjVR7B+vd286AG4mf49ub3uAhv7sZVr4y1H6WIv+GQAAAKgz1SuIi3M0vcw7jdT9wHoNhNhG73yH3qVL9Pp/LtEbyxll67hBmdQ+d0DLwFmjQ+RKjqa/8Cl69MFdtFOfb7nnfjng5RXjshvzR93zD51Rtkw/+TMf1XF8iL50Rf+o4cE7T396P3XJUb68fZC6PvEpevqrr9FbP9MXSZbp+W7nmqOUDcrqjTn6Y52Wln/5LJ0udT3l6fnfdq4/Z/XdjOKt189ZA47aOh+jL81HdCZdSOp0+GSscWTw0G41slqFuZ+eOH2JCpYMDFYu0bght52799Efn2WZ5Sipw2g5ME1ebL7ff1agV744oPLw/sfonHOh7N/3HP2xyJ9XJndT+4OPUfKr+aL+foWzA/qaZkou8A+crn1aNqIsHxujV5wBJCLs176apE92flDdI+rTJ0/O0XJYHv1sf4A+N/F56tsTo9vr0HcUAAAACKNqBXH5268IlYbppNYW0TCePUqPOg3j+3dRDytaax55eTvFP/aIVj5v0HMHdtEnT+fClYpyKZyjAaFwjHzxHF16veApBT/M06WXkrT/1wdoWlsut93bTYONav+1ly5pd7dJnl55SY/c/af99MBOtcuDdzJ68M6X+D63T5lQUObP0ZceFwrYbz1NOXdwTSM98GiH3n+Osq8Ua3w3XsmKM8w2eqTnn9H9v+X0AQy+nr53iaa1wtrRERfSLM3yS4/Rngc/ZQ04eut7GXr6Ex+iAaEg/0/1U9kUXhJKmpbBayteGt8SaTv31H7aMzhdpEDdEApn1+79lDTkdkMo9M8NfZR6PjdDP1I/RfAWZf74Q7T/C3MqDz/+n/Q/dBy5f7OLun73KD0n8ueVyQ0qvJ6h8cfvp4eipgXKiw+QX+d0iTooZSPKMvM07e8coHMib7nP7aOHHk9T5ntaFRf1KZMaoK7Bc4YiCwAAAGx8qlYQC9cu6b3/RudGPkQPDT1Hl5yG8ccFyrGi1flR+tLfhDa3ZbGtfYgm3alaRMP/1D5q/8BHpfVp2R90w4P0uW98kxa+coTu0z/R/hQt8G9i+9xH9NCWn/0PonfdR33JKZr95ndocWmJFr/7TXop2U0xPv/jOfrj5/Xo55+7SyipWkO88hV6xT9tj6mEPfqgUPMYVhYO0CfP6qE17Y9TauaiSsdfT9GRnrtkfm68Pkb7RzKuZe/29vvJURGn//1ln6Jyg16ZVeohNQ7Sx+7dRo1dv+Ne/9zspSLF5rVMmqTq+vZH6JHfKEM9FOkZ+LROz9tb6ff+7GWa5zRfeJlSj91Fr6TS5JR62QjF7Pb2fjo+8XVa+I6QM8v6G39Bx/dKSdONWaGsmQPNf5ih4f60VsRj1H1UlJEsv6/T5NFuIpGGaXkuglefFkrcfXTk331TxbdkDPAQGu5dHxmS5XHluyo9V+bO0O+1qRqWT43RV0I+bJ4fTVKh5/N0/oIqx8f3aLu5qC9PP/pRrmr0yNNKZrMTj1P87er0jdnP04uvq30AAABgM1Clgligq4t6lzI0fZbovj84oxpyqUxohe7Hr9HT/0ooKWuy+G2juw4KJeHLj9N979I/iXCl9emej1Jy1rDN/Nw2NUDmXdvof9M/0bZ36t/EpttzeleCRoVSMLS3lRqdH3/udrpr7yD13asOb7zyn1xr4V17urXil6O5BdsWlP8P00oJE6paZ7tWwq5NUzKl7ua5CF9KD1LcGbyzo5U+fmyK/vRhFe+Nr56g5x3l4V1xevAjavfGi1lbbjcuUfYFtdv4sQTdxS7Id3XQI/t1+l/KUs7SEF+j7KSy8Tb+i24S+mQJhAL6ojMgKEaP/1tWgGLUoAccxf9gil76w8pHLd/+a6M0/8wQdbc1GvK/i7p/v18r8SLe1xxJ85RGp+mctM5towee/jIdf1iUkSy/Rmp9WMjytGNRjkDc3/2v/5Q+vrNYKY7986/TS0/3y/LYpt24295zHz3+fz6iDmgutCvDjV8WiuXwAxTbrsrx95InXAV9+Xt5uvfYafqjjyiZNbYN0ueOu2fp8muwIQIAANg8VN8H0aD1D6fo2cfuUw25VCa+TKl/rq1u35umrKtMVk/DvYP07KVvqsZ9u1YRhKI4/rsfooe+UOFqIdsaqOHtosG/9hq98tXn6Okv8ATcH6WHdt9PI6/oa64su5Y9et+D1P9P1W72/JzhLvTcy9v2P0IdWoEt5ISyJvcaafCTQXMRbqP4xwa10rlMr3xbKXKWS/3Hz9GMYVnz3Mut1P8RZ67BbXTvQzqcH09TxlzF5HWjj+ivlTM34Wt06UV9f9dj9PH3qV2T2Ie7PctsmWxrEIqYnJfyEp174Wl6+shj9JCQdftvDrvWyNdWHEkXKJfVmWarZ5c7mZHLtl/toI/r/XBEWfxqsBp5u0iPmoJJyOf005TkvpE8+frvpPUVRP/tb92St3hgb6c3vRLzrlaK6w8KcZa6u3Sd19x+133kSP5//rSiGgoAAADcVKpWEP+eq/TcRx/7sHIXegjFZU+n3l+my/+5RtYTtvKxe3DuonQH3yVdeDfotS/+Dj0VPEojGFYsP/FB2vnrH6X9jx+lL32RJ+B+Tah7jVJxLKaR4k5/v2yG5hwX5LVL9BXpXt5GH++6Tyl2guXFOb3XRL9QrOMohKLiSO3SNU8+29o6qFvn6/lZR0O8Qbl/rx2r8W576qCdndQv+z3eoOlZzy392uy06iNq9ouMYuUqvab7HFJjY3B/RVHmrmW2TG5cSdOj991Ne357Pz1xZIy+9EKGXruSJ9ouFEd9jccy/adZvfvLseBJvn/u7+mdCOIxigXdK+BJ1x+6Zxd19Q7QyFNjNM59I68UqOG9pV3wDQ3+a0QO3EzcQUWn377NVSjNMgYAAAA2OlUqiA3U6OqEooUMaozfpv8ya3IxByDdwaM0+Wf92gp3g557KetZ/CIp0LnH91FyXlzN/eye/gvpGuf+aFcufJn+4Jf1ZT68/n5zlF1QMS3Pf0VZChsH6cFazRm9TSjc/0Ln6rxQXlh2Ny5TRlv3Oh7yWbGEmhn/mIr8xosZ5Wb+2WuUfVFZJeP/rFPL6CbAazQ/kqRLP2TFd5A+9+++Tguyz+d3aP7Zx8k1vtUJnnR94F9OS0U4tvcIneF+od/ifojfpPPHu/VVAAAAAKjaghjb+YDeu0R5x0Nq8lP9V/CPfqG0daYatt3b6fYBox/9d9d6Fsn35+hFObk30V1PnKDHP3KXdI2r/mji97BA3hWnzi61m/naK0IZXabsnysLX+vAg6pPoKZhh+OIvUp/G2Y4+mHB7eMYb7FVuLt+Tfd5XFbu+RsLGZpm617IYBNXeXXczK857uUOenBPmAnTx9vf6VkN/78QWRppLoflrEi/tEreRUPHH6cHdjbS7U5HRKH4Fo+I3kbvdETxgxvBCv9bhapHBOf+0ulj+QgNHdWTujsWY6O+AgAAALc6VSuIt9/7Ia2c3aDnU/5pPG5Q9rwecSuuav2lYmdieRQoOzlXPFpZc+OVGcrofXrHOwNclgG8kXf7vr1zm++O71+ijNMHsYjbqWOvHsjw1Zfplb+Zo6/8DR8k6GN7bAWv8Zfu1Va7ZRobF7IpsqAK+fzbMeUCplZKtPqUONdtvEzT2RzlZqelwrbt4w8GDzZxB6uwm/mSkL0K2+wXWZLb76IP6H6W9MLz9BV3gnIHXtVGu63LxBvp/k7633zpXv4PmYAR0TGhHOvdK2maDpi6J//SaTqn9yujQP/te3pX1JRtpoWb8zY7o/cBAAAAUP0glXc9QINPOFOVfIr2Dz1HuWtv0VvXcvT84X30yRdU4x574jF6wFFSfrZM5x7niak/SD1fLG9gyfW/GqA99+yigSPP0bn5S/SK3ObkJNc9v5vWCss2eqDjXs8CZlrDzn+FMpyulRydywo1tjFGzgpml8bTlL0mUvGzG1T43jn64z5jgu0Att0rFDFpcTpHXxm/pNzLXQ9Sp3+Zv/c9QkMfURrRja8K2fxLEc/3CvTWDwPk89j/RR8rWo7Qcxsvz5+m56TFs5EGu8L82N5glRuzYzR2nq+3+0WWppEe6HtAXz9HI0IWzy8sW2kemCxUEB6LOqH3LtH4uFD02ZrIA0S+epQGDjv9NE1EPh5wug0s0/jv7pOTVxc4DSt5yn5hHz30udcqSoNHAzW1OHc+R+nnX6MCi+nHy5Q79Uka+H8qUX0BAACArU31CqLgroHT9LkupYrlzx6lnl//ILX9+j46OvmaVP5u7/o8pQaMEbS55+iJr/LE1G9R7gunKVOur/DHBcq+cJSe+MR+2i+3ATnJtRpUsY1an5iiUZ0Oye33UqdW0Gj5Ofokp2v3PvrK34rj7Q/SI3qKGfreczTw63dTyy/eTe2dn6JLHx6loaj1b7fdRw98XN2bOc+2S56wuiNgQMft1HH8L+iII5tMkgY6d1HbPbZ8Ynu/SKnfD16FpnFPt1JkX8lQhnWXUoNNdiaomzWr5Rzl+Poq+kXe3vEpT47fm6ajvR/y0nzuDvqjPztSUb/Bhq6Pa4VayOCMUPR59ZG7d1HX45conhxyFXWTbW2P0+ceU/NEysFEj99P7ZyG3ffTwBffoo+n/7SMUczBtH5siHRvTcr+yUep/W6e1P1D1PMloj861i/PAAAAAGCNCiL9XCM98PTX6fyfDdEDbc6o1G3UwOvJPnORFv71A/ZI1NZH5GTV24QC1foHB6ijZPe4Buo+9hf0uaNCOWq/i2Kuu1TE8T6hrD02SpNz36TJg1qhcFEKGs+h54xK3ra9le6S0+Nso/gffZ3O/KsHqFVPl8PnHkn+BU0+kSB3Zb8QWruc6WkEb++mDj3BchFvj9HHHdmItLujo98Vo7s6eOLoi3Q+2RE8UpfZ3kkP6j6PTOtvJbx4A7mLHhjwNEJ/v8iy0OXJUwl1OKN6395ArQ8N0ZmZFHX/Y/VT2bw9QX/012do6CGnHLhuPELHvzJFQ86ckUUIhf8P/oJmnzHr1O0UEzL7HN/X9k75i+S9jb4BOyV47yN05v/9PPV1xLRSz+E+rvLmH4gPAAAA3MLctirQ+2CTs/zCPtpzhB3fCTp+wVg9ZCvxVoae+OBjqh/iwBQtHqrQTAoAAACAkqzNggg2EN6o6sB+kVuEG1cuuQOT7ttRkf0QAAAAAGUCBXGLcGPhOUrLUdVh/SK3ANwn8QvPyf6bRK3UcW+00x0AAAAA1QEFcTPzsxtylPHy/NO0v1+N6N625wT9XntIv8hNQY6+9LtH6fmv5ii/8pYaRc3zL84/RyP/bB89LZVgkc+HBwNGfwMAAACgFqAP4iYmd7KZelL6gHlvP03++RC1OgNiNiU5Sjbvo3F9FMTtXUdoMvkIxTZ1PgEAAICNCyyImxln9um3N1B84PP00vRmVw6ZGD2YHKJHOsxR6wJj9PfCv4ZyCAAAAKwnsCACAAAAAAALWBABAAAAAIAFFEQAAAAAAGBRlYv5ypefpGe/pQ8sdtKjn31U/L/OfOdZevIZqllcnJ/LrZ+lR+/WPzhc/xp95uR5elMe3Eldhz5NH75DHoTy5l99hj6zcj999ndEyuT9l+kDZdx3c7lCzz75MjWGpVPK+4o+EKX8CZ+srPP+OsBhPyv+17z/USUbjZTXjJJwuTJWYQq5hpU/y13Uj/2HPixCjCao7O00MXWq1wAAAMBGgRXE6llZ/eunnlh95oo+rAdv/vXqyaf+WsRcAzisJ55YfUJsRXm48oz4/eTqX7+pj8tkJXNy9Ykz39ZH5VHNPbXl26vPhOZVlPEZQ95SZsa1vmOZF6N8VjLPGOGq+nIy45wV8Zr5ljJ/Rvwajgxfllnwdd8+o8rTTEMgEWXPYXhpBAAAAG49NqGL+e6yLEMlMax7XUUWqzfpa395hXZ+YqNb/urBnfTh3zHkfceH6f73v0mXv6UsbG9+6zK9+f77XTnd+Rv3087rl+k7153jRw0ZirB+cye9mfuOtsrupEcNayLdfb8oiyt0+Tv62Ie07OU+QJ8+1BVY/tKyTY/SZz9RwtYXWfaKO/7BmmsYAAAAsGlZBwVRKFcnn6Qnn9Tblz3XJDfwT375a/r8Z+hr19W1z36HXYbm9WYYfJ26X/7+zGfoZUeBYNfmya/RFQ43ID5WGMxjC6HofPqzIQrg9e/QZeqi+/0u54rhfHnpl/l30qndrpxG6c78lsiL+P1ZM2/utf58OOEacrPk5I/LCFdil9Fn/sq4sSRv0vU3HAXqTfpO7k3a2WoqZDvpA4YC6efNN0Rc/+COEAX/Oi1fv5MaQ5S2O3/j0/TZiI+Dnb/zWct97aHy+5m/0mmKKnudPwAAAOBWpsYKIjfEn6HLraIh/6xorEUj3PXGs7Zy8q3LRJ9Q55wG+soz3J+Mf3uUdkpF6Yy+5rP0qFA2zs+EKHnM9fP0Mu1X8bFlSdxvK0NVcH2Z3hRKzHVWMB0lK0zRLJfrX6MzM3fQozKfYvvEB+TPrNR8ulOoPNw3j/PLSqns03edug7pa7UcXQVHIuTCVjA3vDvEsdPXTyhuKx8QSpA6x+Ff+cuviV/VObuMPkv3r5zX95XBd16m89eFEliV8nyFXhbKsK1Qerz5Vy/TlTs+QHeHKIj15MozTtnbijcAAABwK1BbBZEtb0J5uP83HBuPcileyRnqh+GOdNj5CWcAAFufxB/jGqlMvHFdKzcB3NFF+534pPtTJOMNdXW4RakMhKLJgxfCFbRquE7XHWXj7p2hgx5YXnd27jfk5HfNMjygwxg4Yblnbbfwne//AN0plF4ZdVEZsZzKHIDhKq7VDNhga+ezdL3z08WDgQRqYIhQoGvRfaAIIQ+hbH/ayHM46lpHeVaKN5REAAAAtxY1VhCXhQJjuj3FxqNboxQ8H3dsv5Pu3L4BTEhC8fRczEEKWoWwW/PQB+iydu2GWzlNF67BHY2ekhfIneIevcuYLmp3JLaAy0iEVamEpbv+LxsjXLM2VvplWniUdJCSpt2/PPJ7I44UvvtRacUOc5kDAAAAW5HaKoisxAjFynFtutu6WIXWEc6H3q0psu8by+RRomfClESl6DlWUItIxc7oO8cKmVTmHPkbgzqCFM3r1yMUT6Ucvrw9qP9fUFqvCGXK6EfopiVIsVTu7uXfFGms1tJbJzBoBQAAwK1EjRXEu+kDdJ7OrNkVWxsiB6lEUZQPocj85RW6s/VuqSBVFa5QlDyF8I7QgRgMu9XfnDljuDVF/M+cJ9LxK+y+mW/+1RmRYmX19A8EkSON9T7dcYeI/Qq9bJTRlRnDwujn+tfo5W/ZLmmTnZ1dREZa7X6ESm47fzPkA4H7M9ZkMFAptJWyrHp5hb5mXsflJvJfXZ9LAAAAYHNS40Eq3H/rUbpjJmoE7WaA8/Fp+kDOyYca1FFeH7YQ7mik68bABw7P6Ysnp4YxRzHfzVO1cN83+3o7/jupa/tlfZ5HQnv998zweDuzYo4aVpM+m2V0ubWUa9fXbYC3k3rQC1tFjbSqaWhshdAb8OFsRp++6+fpM9Y5sa11QNAaWTbrbw0nZAcAAAA2C1WtpAJuNqywRax8AgAAAACwBmpsQQQAAAAAAJsdKIgAAAAAAMACLmYAAAAAAGABCyIAAAAAALCAgggAAAAAACygIAIAAAAAAAsoiAAAAAAAwAIKIgAAAAAAsICCCAAAAAAALKAgAgAAAAAACyiIAAAAAADAAgoiAAAAAACwgIIIAAAAAAAsoCACAAAAAAALKIgAAAAAAMACCiIAAAAAALCAgggAAAAAACygIAIAAAAAAAsoiAAAAAAAwAIKIgAAAAAAsICCCAAAAAAALKAgAgAAAAAAi9tWBXq/Aq7Qs08+K/7XbHs3va+rn/p/9U79QwjfeZaefOY6dR36NH34Dv0bAAAAAADYUKzJgvjuXztIR44coccfvJP+60t/SlOL+gQAAAAAANi0rElB/Ls//w56xzveQe/5lY9Q+y/8hK5de1OfAQAAAAAAm5Xa90H8Xz+g3ORnaOjQk/Tkk0/S0GenKPcDfc7kJ1fo2SNP0tN/9X3KjYtrT3+DfqpP/fTVND35h1P0+v96k752Upx75mX62r8ZUuGd/HN6/Sfimm+Ka55M0zdu6JtufIPST/4hTX1XHwMAAAAAgKqogYL4U/rRN1+m+b99N/3iP/n79Prk0/T8a3dQz1CSksc/Tb/97iv0/Klz9H19tYQVvy89S1ebHqWDv/Ee2vn+9xF99wpdlsrej+g/fuN1evevtNP7nNT9l+/TO7qPUXLoAXrP387Ty5d+QG+7+wPi/Ot05dtKrfzRq/+RXn/3PdT+i/IQAAAAAABUyZoUxDdnPkNPPjlERyf/K73noX564B8u0eXcT2jHb/w2tb77bfS2bXfSPR++h97xg+/Sd6/rm+jH9O0X/pTOUxd98uM76efFL29r3UX3/LxW9n70bbr8X95D7bvfoy5nmu6he7aL8H7hF+muXyD6wQ9+QLStlXZ98Ofp9W9dZhWVvv2ta/SeX02QcRcAAAAAAKiCNSmIapDKn1AyeYQOGiOY376N1T6Ttxkx/V2hOIo//32Zrjvu4b/zPmr/lXdLZe9NsV37P+6hD7xTnwvgJz/5ifz7vt330LvZ8nidlcoddE/rO+TvAAAAAACgetakIKpBKj9Pb3NDaaZf2vnz9PpXn6fcD35KP73xJn3ja9+gH/3DX6K7f0FfIhTEu/Z+krreeYWe/dLX6M3/pX59z+52es93s3Tm4jV6372/QmWpev8wQe3/6HXKPnORrt31q/Qr0A8BAAAAANbMmhTEYt5GO3sP0gP/6Ps0mRyioZGn6fxP7qH+3/swWTMk/p076cO/9yjt/O/n6U+fv0LSHvjOdmr/xTfpzR/dQ7ta3yYvK807qH3X++jN62/RPbta2U4JAAAAAADWSJUTZa8HP6VvnB6ic//7QfqTjzXp30rDI56HvvIOOvgn+6j8uwAAAAAAQBg1tiBWyU9/Qj9YPEfZxfdQ4tfKVfN+Sj/526t07uuv03s+FIdyCAAAAABQIzaEBfHKl5+kZ//TO2jn3t+nR3/53frXEshl+16nd7z/t+n3P34PvXtjqLoAAAAAAJueDeRiBgAAAAAAGwHY3QAAAAAAgAUURAAAAAAAYAEFEQAAAAAAWEBBBAAAAAAAFlAQAQAAAACAxRoUxAJNH2imlmZnG6DpFX0K1IXC2QFqOTAtSqJccpQ0yil3UpTbyZw6ABWi6n9yQR8GUL58S4cVyUKywnpQGlm3nLSvTNPAuj/fdt2sCTLdSRGyAcuKf1sHmQEAwFaiSgWRX+a7KH9wiRaX9Hahg2hZn64SblAHztbglR3UMNQAq9G82YgGrj0/SIunu6lB/1QprYdEuR1q1Ueg1tRKvjV7LqplezelllLUvV0fb1b4vXAqRvNLQ4RaDwAA0VSnIK5cpTz1U2ebPmZEI9JtHoN1pdDYD+UOgIpI0OgaPqgAAOBWojoFcXsTxShNM1EuMenKCXY/S9ebc066eZSLrSdFlB3aZVzvd2Nrq2CQhdD5jePdPUxZkb4evse1+PnCirAESkuhL05Oc/vQHFFqn/zdcQfa1zq/B7kMfb9Z8hGbL52B92a8fDds182czHeYa87O88DZq/p3hd8iGpwXB7YaO+dEfAtmGej0neXfxHnHdefLo2cFc/JohCnTYaY3yt3o3G/nz0yvytu0Pu+EZeaBN18dKqKc60ulwbzDDi/UKijLlM9/V4Zd/FwEs2yWn69++8u2KG6rrJIkaroBp9uL28mX+RxHWTjtuCuRuZlfOw0STrPlJrblm5zXP0tEOR3eRWmrTnuovHhpC02zjjPnntdpMuXnkz0AAGxKeCWVqnhjavVAU9Nqc9OJ1cv6J5dXT9i/83H/1Op1/77g+quX3f3LTzWtHnjRORKIOE64x9dXp/qd82r/xKvqDGPdK9Nmpsu81zs273fx3yvS5+xff/HAavNTZm5FOE8ZeeHzOm9F1/pl0HRgdeoNeUZgpy/83uJ0F6fJwZ9nJSMzXvve8LyIO1dPiLL24lVhe2Wsj41yZS4/5asD/uvdYxW+mTaZ1sB8Mc79hgxlufnyZslYxWHKw86jn1LXl5kGNw9+GfKxc60KS56TYdhlXPRc+JGyNa7xhaFkYZSFPy1W2Qj0/Xba/bL132/K2kCGZdYD73myUWmy0mGly06DhM9XWEetNOt7ZV0z6oG/XljlKNPkydqRhXveVwcAAGCzUv0gFdkvaYkWJ8hnqRNf47Npiif7vX4+bf10nDI053z9Z/Nud8WGttZwl4+IY2ivc7aBEl0JcSvfqfbHZ504czSTSlBHe0hIK3OUyfbToBFW98F+434/ebrqpFWkL9yRK8I55LmsGto7KK7zJvdTM67lQcpEpJmvVfIZNfp0qfRkz89Ja0j4vTrdpxyrSYHmxD19ewJSWJRn7hM3RX16v5jwvNDCDI3HR6nf7UIgrj02SnF95NB30HbftR4y+nq1dYq4DbkK+iac863UOSD+DAy6Mmnd00+0eNWwDhXTN2H0ixN1ZXBA5HneuMMIz8nDqCGPhr2D1Jc16qVJmdeXTINDkQxbqT9JvmtzlNw9TLGJJRqqtLuGmVaZDlGLr3HYuo64smY4bu/5KXpexf2j4nwkA1NeGvn5js+RfDQDKfd5StDxC2ad4XBLeCocyqyjftjq2rM4SvOu61nLy6jLstyN59GUtXxOON37daq3i/dQpCwAAGBzsIZRzJq2IVpcukjHF/dpN1OBri46LjHtcmneRSNZ/dLk6x2lsoTLjDHdWNLFq7Fe2tw4mMqAn+W853J2tt50sAIiGsfUhQ7K7FbX2W7WAEzXknRta2Qj7TRurMA6ypqST2yH0/xoGmOeQhZ6r4AVLUdJYSWQzEbRgPMcj1GjPiyLkLwUruWJWpos5a8stKtUhbmPxvXPQTTGEhSPVZTaIjiMMILz0EixkMa80usdwtIgw8sOU7srD1Wf1QePYrx3H+WTFytXDiNZpnw2QX7RNuyI6fofUh9rRaXPk0UDNbXo3RJUVUdFefQMxWjS6pfI8uKy8MpJ1V3748ZFdreJUVPYuwcAADYpa1cQJbZ1j1/qfRN6dLOxeRYHVirFb7LhCFcSWTkci11075+3rBpsdVJKFFtAAq1oDqx8ia/+eR2Ou4V1WOdGTV4zRSQaitBGjRUqOSpSh3fBtliwFUxaaaQC26ktI0o+yrrjw1Dogu9lON/KSlWYzxBpq2QRpsLpIAcXhVAiL0XKtFS6I2DlcHeeBp3whCzDrZe1YTnvfUD48RQiP8XKE1Pp9Q5haZDhDUxpWRibMdCob2KKYuLDKqo/X+VEKLVSoQquj1GyrJhyn6cilPJaDoHlVaqOinfCZDIvPhzNfpEsL7Zk+sppK4ziBgCACqhyFPM0Ja1GTLllHAuQVG56gzujF84mPYVQfn2H4bdsqDhMlBKVlBY2a0S1H3b70DANl9PwCkXJa8C4sdC7AfitFqywWQ0SW/tSM5T0KbCc7uzQsKEYcwf6YVvZC7mXad0/SnRe5GcoZrmQLfRAojEjz7kzhoXTR1RelLt52OjgL9J7Kq33Q/BbMFnR1bu1wnO1C0S59ZiWVj/S8mrXgcLZYRoRNSMR1PCXeX3ZaZDlua+EctRKQ0KJqq2SqLtjWM9jjpK9Xr1iq2d2KO2dF8/3WErvr5UKnieiORo546VSyduxkCtF13PJqzy4yA+iCuuooHFvSnx4mkoiy4to5LA5+KV6pAcEg1YAAJuQqkcxk8+FnOm6SCnXDTqkX7rOebHp0YYNO8TLV7ub2HVDRh8uqfi4ozV1fzvX1TNM+Raf+042umnKm/2nGO2i9fpGirBOq4bXTY/YAhtr0dDk3ThVvhzLp3Jre6OYzWPehvOikVKXapSVc3zR5waWbvaYIQef/CQh9zJS4Z2jrGVZ9OMpG076ZvaEW/Ei88IWoAm7LOhgif5dst+p4VKdpZpbEPtEQz7shN+bt/uvFVEsj/bzHUbfMz/lXV9+GkR4F0aNusVbkPVcXSefA/3M2M+FuqoSGlwlyImXnzvPol90/jDRYKk+iOUS8TwVk6DjsRl9LbvgTfev6lPovXdmqFPUSRfpyjblW0Yd1XD+J/X7Qj3X4rjF7g4AJQ8AcKtxG49U0ftg08BTq6iJymvbX60CHJd0qIK1nmyA/JeB00XCVvwBAACAjU+N+iCCemK73m4Gyr3njMoGQZQYWQ8AAABsYKAgbib0qGDb9VYP7AmI2UXJo21hGQvCkRXLyJzKCAAAANg8wMUMAAAAAAAsYEEEAAAAAAAWUBABAAAAAIBFlQoijyINniaGR26WXLg/aMoIHhVrTeMRHsdawdxkAAAAAADhbBALYo6SchWP9VitgAcN2PPHtR5aslawAAAAAAAAHhtDQVwg6rwp8+kBAAAAAAA/668gStexMz1KkvwrvEqXc+8+dxWHSJeyFZbYLDexPRWLdHPLaWF4of05tWqJXpnCcnPLMIOXBQQAAAAAuBVZXwWRla9eoklnwfsLMcoMmSpigebyHTSvz88nE/batiYyLF7KTIe1dJGOL+5z+zvmTqq5+ZxzgzvEj7z81hIvL6cX34eVEgAAAACgJOuqIOZm0xQ310kWCtuotcZrA3Uf8pS2hvYOimfztKyPTVRY5sTDaq3m7Pk5V6HM5p07G6i1rUxVkNdFXopawxcAAAAA4NZiXRTE2A5Wzgp0ddHZj8B0G+8epqz+2SYkrMaYq1DywJNJ2qfC0a5kAAAAAABQOVUqiA3U1EKUv+ZXw5Qipwi+ZjlvuJhZOZSjl7Xb+MIoxfUpm7D4BPEYNepdOTqZXdVdGWqHkggAAAAAUBVVWxBb9/RTdmjYmj6mcHaYRmiU+tvUcWMsIa5JewNAVqZpLKX3BYVreaKWJqH+6eP5TIgFMSi+Ak0fHibqSoj7xf5JTyFs2BHTe2WAQSoAAAAAABbVu5i5795ETI0O1i7i9vMdNG8MBGnYm6L5ZN4dodxymGjQ6IPYsHeQ+lLaLSy24XwsxIIoKIpvF2W6LlJqL8fWQE00TO1OPDwwxk1HK/UnyRrFDAAAAAAAwrltVaD3AQAAAAAAWN9RzAAAAAAAYPMBBREAAAAAAFhAQQQAAAAAABZQEAEAAAAAgAUURAAAAAAAYAEFEQAAAAAAWEBBBAAAAAAAFlAQAQAAAACABRREAAAAAABgAQURAAAAAABYQEEEAAAAAAAWUBABAAAAAIAFFEQAAAAAAGABBREAAAAAAFhAQQQAAAAAABZQEAEAAAAAgAUURAAAAAAAYLFpFcTcyWZqaR6g6RX9g0uOkoG/b1Y4P82UXNCHJivTNNCcFFcoeQycLajf1531kLEdpizfk5yz+lI4OxAYr0zPgWmKlLBRHmujQNMHqinPiLqyHiwkS8ukrii51Tr/5rMl60c1eWZZlfnMhNVBAACoJ5vaghiPE42cWY8X6UZRMrnBG6PYhSUaatM/mWzvptSFGI0JpWAsdpFSexv0ic1P66ElWjzUqo9uMqJxZ/kunu6mekg4d3IX5Q8uVVGerTS0FFJXQE1o2Juqoh6I98mpGM0vpah7u/4JAAA2OHVXEJcWF+nh3l7xNd0s//Jx1XR1UF9qX/0sJjeBxLESjQoriUIp2ErK4UYjR511lG+BGvdDydtSiPdTZ50+LgAAoFbUXUE8cuQILSwojY7/8nH1JGhoop/Ge6PcesrtxAqp2sxrlUvOOSfdSNJNuI/GaY5GdovfXXeSfa37e5Bb0frNF7/hOnJcScpdrjbTrVg4O0ztURZSGU/AvdKdFRamiNM956QxwGJajvtw2YzfXwY+eRWdt+UycPaq/l1hudl0WnJm2ku44Ox8GjIoWV4mKo09vft0ONF5TM7rnx0iyoExy90NeyFN7Ycduav4kwtGPDLfpuzMcnOu14c+HJlasjHlqOU8rdPF4ZjuVYeg3xiVH5GPUBkHW+WddIU9B6XkWIxZLv447XoX5Pa15CPkYdVM67nQz81C+HMgwxL1p0eft8vGlxbf8xYqDwAAqAerdaa5qaloq4bLTzWtHnjxurvf/NRluS+OVk80HVidekMfvjG1ekJft7p6fXWq377P2edzl1919n1hMK+eWD3xqt6X55v0sQrTO2eGa8fnv/b6iwdk/t17RRzNRrzyvJsvHyJfB6w0Xl6dcvN1QhxpZJj6WN5jnrus94Pz29w/JVIchMq/d17lyy4DM986L77rzfOyDMPyLvNgXC/zYcvcRMnVyKdOT+ny8sUbUXfsMBktAyPe0HIQ2HWW451S5yy5+8PUcjfkZIdTnDcTJRczD748aTlb9/vrgVmHjHMyHb50m+FYcvXhpMu9XqbDzGO4HG2CyqA4XVY6fOHJtJj5led9MnLPl3oOxPFTXlh22OparyxEaKIO8FEpeQAAQD2ouwWxrc32nfmPq6H10BT1pcYCrRPsgh1y3YMNlOhKUDa/rI/J2G+g1rYIJ1DbkOH2a6XOAaL8Nf6qV2GOzzp2gxzNpBLU0S7CWpmjTLafBo34uw/2G9cKBqa8cNv66Xh8jozkhZI7M0yUHDXcz63UreNpPTQkjjRtndRHebrqysbYb2v1rquYBB0/5rjNVL5o8aqygCzM0Hh8lEYNt2zD3kHqy2ZojuMukosuQ70fiBmeKNNBV/5+CjR3fo76JgwZiL3+pFNGEeXlJ6ru6Dz2u3VCyODYKMX1ERNaDivTNJbqp0mjj2XD3u7QsvDyouodDQy65d66x5B7OYj65rnLVbllhbzc+608CTjdTrkJCvMZyg50WmldPjtAPYujNO+6UXU9P+VZQmWZ7AnLoSDiOYiuz8WYZd+6X5RJNk8yKF3vTLmruNI0Iy17Op0HDXeweO4nWeahRDwHfHzIC6uhvcNLy0KaRsh+RlpFHXCPqnwvAABArai7gnj06FFXKeS/fLx2WAEgGnFdczamq6Z9aE7/yg3PEk2Sdh/63DvF2O6gnpT+WSCVn9SMci2x4uA04Mt5ylLadS/JrTddWYMeSIGuLhLFdniNi4V05zlxsrtcIwe1dFCGXefi3Hr13SxcyxO1NHmNnaSRYk4jx3KJx8Qv68Ey5bMJivkCb9gRc+UeWl4BhNWd4Dz6CCuHNeS/MZaguD9za6ExZim1xahnKzPPkmMFiuj4fkPByg5Tz1CMJv197EzFkhUzoQxZimclhMmxUgLl3kBNLc7HRnDdWROme3z3sHgfKMqqPwAAcBOpu4LY3NJCL0xM0OLSkvzLx7WgYe8oHadhGvb1ZeMGXo5AFfHxNp9M6DMKOVqWf+/KUHuoksjKoRpZ6oRjWxXYsqOsELnZtGcp4cY3Pkrz+h53W3OHdbNR88GN6e48Dbrx+SxzelAL/06966MkmsqYjW58WS6OJcVh5SqJJrMGGIqoH7dBDikvH1F1JzCP8oNAE1UOQfm/WZhpDoEtX8RWRqnodVDCVKZF/Z5M5sVHkL9/JstYXC8US7Y6Uleiujpfqj5XQoTc1cdWUN1RH2NVwcqhHL2s037BszCHPyMAALAxqLuCuH4oFx8NDRsWBr+lTbmQnP3pk55CKF/YofgtC+yW1LsadvWNzybF7/3U6VhKtidEc8pKa+2bAY4vK/LqudVzNM3x+K0kbCHTu9xgeQohN4Z6VzeMykrE5CjJls5qkdYjO9884GbEUS62N1GM0jRmnGeXeSlFpTy0C9kauKTyYyqCgeVlEVV3BFLZGKa0K09Rn04ZMosqB64X8TT1GANECmenjfSuI1ZXDC0X06UahKzHGUqfCVb0GvemhPJcrCSye5fOi3owFLO6E1RElBwrJUDu/Ez0uHVAfXh5rnEBu4KrrJh+K6F0z+v9oGckJ+qAdxSG8mRg0AoAYL3ZQgqiYHs3jVoWQt0XqtdxTw1TvsU5LxoDoby1O+6fXjLcZNpl7Y5iNo7l9TNE/n5J/MJPpSmf7BdXO4j4T09RbGiXvk9tNbHatQ3R4kTMSNM+yrMyw/2VzHzNkmW5yruy2EWZrou6n5OjXDvpnKHOiX55S3XwfHx2vtvPdxh91IrPz+xZg2XIB89VpxQWJ6/7iCZ8U8cElpdJVN0RSHf9qCHPYaKDRh/EqHKQ9eIiHV90RkezfFhNrwMDHUSHnTSLOpN06kAUrHQLxSkVruixzCcHVHcKt35LxXKuqM9iRUTKsVKK5S6f+yWjzyJ3O2kx4+ss0QcxHNWVwYtrOC8+KvS5oGegJw+XMwBg43Abj1TR+wCALQxPudKeH6zjBORe14zSSigAAICNxNayIAIANgyqW8EaBqcAAAC4aUBBBADUFj3quD1odDMAAIBNAVzMAAAAAADAAhZEAAAAAABgAQURAAAAAABYbFIFUc0FFjRdDE9uXP4cYXqx/Yhlu9aXMuY04/5cJVd5qQKexHc9wg2hsnLxw+VklLeb9vB6cNNZD/nKvn3OXIM+mZSNklmLORdgKBtYvmFIGRnPdGRdKeP5q5Rb7XnldBVNkg4A2ArAglgngl64uZNqChBvbVwbvsdcnutWJXfSN18fzwF5ME/tzbfyFCo8j17leeeRxXJFoLpNdVNPhNIsV11JeUsnRtSVUs9fpdySz6uQr5xztKwPDgDAZqLuCuLS4iI93NsrJ4blv3x8a1Kgxv3hDTw3Nj00RYtrmrB6C7AyTWOp/uIJmrnhr0JBurUp0PKO0a0rs5VG6jcmvXYJrCvRz1+l3MrPKy/FGHfWNgcAbBnqriAeOXKEFhaUn4f/8vG64bhlpBtErVYQ6qYJcuG47hPHPaXceios0zUd4Kp2w1P39qSIsnLVBH3dQpraD4e7jOQa0eVaeaRbzUmX7UbjyZHdvEe4gqT1Q5+X91gWAds955xX96jNbx214hVycFfIttykGr9b0EAuT+ZficMsT7FZ6Qr4nSlPDrocF0x52tdGxRHEsnm938riy0ex29esbyKuef2zpNIy4bB2UU+vXrnDX9d9daj4XudccDk5mPFbcVh5DQ/DL1+56XwVW+D5t+96ctjeoKfUMV3HtgzdMEo8f/77op4dpjbPq0q3G2dRffBQclZpKpYNp92Tcem64ZO7+bwKnPs97LrnLGHIa5sDALYOdVcQHeXQwX9cc7LD1D7bqRf618toBb145dqoGZozGq7cbJrixlJs470z1OmEMzBHI5ENjAMv78XXkwjrorjXcH/VBPGyPjxMsQmVrsWlKep0zogXu1ziTqc5zBXEDUfP4qi4LsD6EkZqH83s0XFO2OtC++NlF9+Is3Z1QGOilMDBQLks5+co7i2CrRQNuTyaDvvCKKlVtAs0lzfzmvDW1BUNMq8H7N4z4UgoCFGup4hG5bUX6bi1dm9EHEGIujdGo24640JmbqMq85Gn4xd0mjiuxX1Gw82NvFoi0DkfO1/CfRlRJryGsRfWlFwH2F1HmhWW3RnqcNMyRR36FFN2vRd5UvVIXTt/sMn93SozXiIyJAxesk+lQWwsM+qnSaF4ybXHz89594g0K8vyL6q1t2eNer0yR5mssjo73RNUmBdpcIe+JhIle+8+/ez4leqqCHteWelSy186aeX64CmPHnV9XstCrWGdv7Z26QAANg51VxDb2myfjv+45sTFi9T4sm/dzw11kDtEr7d8xjmTo5mUUGbaPddm34SxZiuHk83Tsj6+2XgvZ9GYSpEKZUY0qH0HvYmK1dqwdt7ZwiUbm0onNB6Y8txzvF5ufI7yUhjF8bKLz1vPVq9x7CpW+vo94U1djNeYlohG9FTaKgdeE7lbpkOEe8jIK7u9rPLJ01VHWWoTMtK7xSTo+DEnHJVWWryq01oqDh+i7o06rnGRzkEhA6ec1MfHqKEUq7hcJUgodOPifm8VEnH+mLHWcxChZcLHQ4Y7tZU6zbScGSay0tJK3YZLv6J6b5xrEHLmUPwfWmp9ZftjrBhHkdJx+z7gTMuyqtdjnsLjszpnXSE0iGfDy1coWvZu2QlkHL4PyLVQ9LwaSq1C1QdL8RXU/3ktj8ZYwpAzAGArUHcF8ejRo65SyH/5uNZ4CkUA25u0xakYqy8NNxIhVq2NhWhITl+kjvPadehau5Ypn2Xrj+dWamneR+OmopQdpp6ar3bB8SbINPoVYTb23DCWvRxbibBNN6Y5WEAoZ6kLHZTZrc4FWWXKJiyOiijQ1cWAetoYc5WvwrU8UUtTDcuFLVQ63WLjLg+KkLRUA/f1myDqkXE4Lk4Vvupe4cS/i0ayhvIaAA8gYWuaqdTyB1xmnhUrVmqIju931Vah8Ip6FHCOXb+TtE/FW6YFMFj2jRQzFe6qCXlel/OiLqW17PTWmzY+TgQ363kFANyS1F1BbG5poRcmJqQrg//yceWEuTRUYxTJylWhIoVguD/Z6hFl1dpYcKOj3EOyMZSNDjdoCcOF6WyGizs+SpPsOivRv6oyghpSf7l4DTpbe6grEdngeeUc0Uiz4nYq5rnJpHvSgJVEeW6KSCjNVSmJpeIomwiXXDwmcimu2CE+Y0zlgJFKRDUo96UcvazTblp0a+oe1ANCFqVCzkqiCr/Pdal6m6f8+RByZiuZacFj+AOO2MIqPyo6KGF8vLku6KBz3D9QxDfflaH2MpTEQNlLaqVIBTyv/HHA3g5DPnIzlcGb9ryWh9UVBACw6am7glgrZINg9rES8BQeI35rlNnXihvKw+xOM9xdFtqtc2qAxkQDVZ5Vi1EvWWXBYHKU5K//uiDicq2G3M4k9F4DJbqoZD/Jxr0p1b/KaHRkA2m4oqVcy9ZMlEJg9c1bSBfdz65KOj8s+wYWjVA2sF1XnKcEjfcaDeTKNE2L8vVbfaSbUe+zwuEphFxWerdCIuOokOL6q+umoyxLa6Kv7p6qtk75rUTcfULvCorTkqNp3yCGciicTXphGJZ6Dt8qsyi4PyT3zXTd/Ab8ASfUv/SZgI8K7bYeZre06y4VMjvp1UNZr8tBWrhF3TRkoN4ttuJZHSHPq8ybHWcQQc+rfEacrgkC7nc5rvdLU/p5Lf0+UG5qxwotB8MYeQQAbE42rYKo3FkxGtFuQ95kR2u/+0V8dcdmnWt20UjLVPS8Z7JxmCtp1bIRiuUxofC4brQZ6vRNdyEVInMUc80QCs+idqE5MtB9LrnDvxyUo8/JLeDFLa8bUO4tqUjJPkieu2uYBul4BUqVdOuZ8c52Fvdpkg3iXPEIZR/+KTQ4raqB1GHvFsqCUHxUPzRPDsN5oWDpe1jZyruudr/rsnwi46iUovqr0uXWTekWHzXSLZTHg9VaLHX/WjeuGSKzPIrSso/yVbicG3aYcfAAG22tFuFbZcZboCVPKclZHihkPNfeteqjZzwV9FGhzmWz/dTplq1QfkTtdeshD5Qpyz3Lc0xOUcxwiwe+W6oi7Hllq6IdJ29Blm7/89qwd1Qox14+Z/ZMUZ++thxKPq8l3wf8AWLKHQCwFbhtVaD3tx6OS7CiFzuPYByj2IVajzYGNkIZ0G7PUsoaWyTGYobyBEAAcjRufnCLTgK+cYHcAdiabF4L4joh3TObYnDK5iawO0AIrYeUZaWqfoPg1kBOZWQOXAF1QXyEt/PAGSiHAGw5YEF04Gu53yB3FK+JKwkEIufcYzdiP01WMo8bAIEoSzT3ieOBMNV0HQAAAFDM1lYQAQAAAABAxcDFDAAAAAAALKAgAgAAAAAAi02rIKqF54OmjOFRyLWeSuZmwvkJmdiZ+/OFLti/nmxkGXOftFrLIiS/Uv6lJ92uWdlwP9kqJknmUablriKydpT8N9SAIpZbjfMvZepMGSXrQTXPg5JVeXMGVvnM6TrqTJtjbmadrG8duZWIeH9bbOR3ai0pQx7yPcd1tPJ3XRHr8OzbbORyW3tbuKktiPG4uXZyLdkohc4FzFPuhHS+l3PlxWhMPEyYBkbBS7Tx1DnrLwtRNofzNLhUp4ER3NDLVVwqH9jD8+ZZK3KA2iJX6al8WiweyS9Xt1nPEcDuCkJi47lZjdVa3GdENKJympqtUEeMj+abQlH8PKcmBk95lJKHaHt5ony5AhgGMa6FWrSFdVcQlxYX6eHeXvmFwH/5uGq6OuTExRvKWlFjEsdKNDy6AYByyBSocX+9FLZlajpWzxdYgkah5G0hCrS8Y3RDKA6Fxn7MYQg2BnIp3Bg1YZq5NVKbtrDuCuKRI0doYUFpdPyXj6snQUPiqzh6GS/txpEma7/ZWpm7nXPSFCu/AHmpKr2ag2uetq91fw/6YrV+88VvuJMcN5Vyl6vNdvsMU3uUhVTGE3Cva6IPClPE6Z5z0hhgMS3LNG/KxLy/RHi+9MnNiCs4jQIdRs48b7rnFtLUHrm0oK8MjbCD3MChrmFOx+591KNX+/BfY6VfpPeq/l0RVR8FgWXK1spd3rJ7RXLQsjblaslFXR8sF6eswspSpTd5VqeLwwkKLywOnR/OR5iMA12sRXn0X1dCjgEsh4YlMGVX8nxSvB1M7Ppe6rlW1++inl69akqQLN24fO64ZbN+lM5zaXKU3u0ss6jLesGoC1IOpqx9z7WP0GfXX15++Zr48m/KrrgOGbLn++QUWnrVFzcOs27zVpyuivIclr7A+J3w1SWSqPJ10NckFwLu12H6n6XifPLmq5fGOS9MR4bm/WaeA2Tkl4klL7GFlm9QfjRB8gtoX53nS6HTvlDec6GeSeN8aFnYsiyWtZ8w2ej0+euP88z74peb8T4If55K5LtkW1gmPM1NPWluairaquHyU02rB1687u43P3VZ7ouj1RNNB1an3tCHb0ytntDXra5eX53qt+9z9vnc5VedfV8YzKsnVk+8qvfl+SZ9rML0zpnh2vH5r73+4gGZf/deEUezEa887+bLh8jXASuNl1en3HydEEcaGaY+lveY5y7r/eD8NvdPiRQHofLvhsuY8VQUnn2tzLNxnSUDGYchT5kfn/xKpNkrC19c/nstWdlpDJWvwJ/+oDSH1cfwMvXVMV+YMk5x7MrJH04ZcgkvSxW3fb+/fM30Gfsly8cfjkGA3KywouTop1RY8nxxftzrLXkI9P1h7xynPELDF8fuOXmv/1o7ril5TpeTKz9dLmHvhyA47KJ6YKZdh+nGr+M00m6/a31IuZj1yHm/+MtHHXsysIl6vux3NmPLvigN8rx9j/2MVp7nqPQVx+/La2T56jjlNV78Mr2mzIviCMbfvk095ZW9LQMnz2H58stIy8Qnw/LKN+qcwJ+3gLza8tBpD3suOB/6nJ1mQWRZmGk0yqaIUrILuNdIk419rV1G1ed7LdTdgtjWZts8/cfVwCtt9KXGfF80mu3dNOS6X3m91gRl88v6mIz9Bmpti3DgtQ0Z5tpW6hwgyl9j/VyFOT7rfdHMpBLU0S7CWpmjTLbfWDe2gboP9hvXCgamvHDb+ul4fI6M5IWSOzNMlBw13M+t1K3jaT1kuD55bWnK01VXNsZ+W+saXKQJOn7BjIfTnqaZoC/DCHjlmrybD7Xof99Bz5Wq1j/21mLmPlSjjjxF2Q665VCChRkaN+8VyLCzGZpjecg1uPW+oDCfCV0nOly+xelX69jqfSaiPkaVaRFGXuR61VwezioivM51mfVIUbosrTyJKzsHRN2e13LX9dxei1d84e4eppg5eTWHS8OGJZTLpIMSYe6kqLIu8VwXERFWbjZNcUvu6jnNirLkK9T5fk8+4v7RZEIfhBD1XIe+Swo0fSpNfRNGWYi4ut1rRTkdc8pBpZEWr67dSuDDi1+ljYyVpVr3lIoz4P1SznvQIPr9VSGlnntNJXmuPn2lylfAFmLZB8/rWqTegV77FvVucllIUs+imW8h80PGe5XfGdk8eU9MGe8AI92t+0e9+yss39pT+rlg7wHLw1sEI6IsdJ3xVvlSa9m777siSsuuHCpuC+vwPqi7gnj06FFXKeS/fLx2VAGOhJhUTVdP+5DnHJKL1JNeOD/IPWZhm9B7UvpngVVwXLmcl8ty3jOXOxuv1rLmQizQ1UWi2A6n6viw3JTsLteIByB1oYMy2jUaaOavmgZqatG7ZcLm8x6aMvpP8qL/ROO9Ttqd9K+hgdAUruWJWprch03RSDG34TZfAvxwRizbFiZfmf4ExRr1YQjB9bFEmUaxvYliNe23U7osuYEgrUBxg0WmAiUY7+WX3UVDEWLsjylWvGzFszLCnuvKCJF7Y0w3gGsol1DC3iXl1Z960hhLULzcBIW9Xyp9D4Y+X5VT+rkvpmSeq05fqfKdo5Fe/qjy9zs3P8hKvJsYTl8v0aS/z7LpzpSu3CgqeJ+vWztXI7LD1MPLQVryCC8LWWfEPe1Gfvj9EvkBarGx28JKqLuC2NzSQi9MTMhRdPyXj2tBw95RaZ0YPmv3+OJGhEf4ylF8Ypv3ffmzkih/78pQe6iSyC90NSLICceyCskHWH0xyEZvj354uZERXyLOqEF3W/NgA1UBAy1n/HLYrUbXqvimxBeuAb/E9e8kKl/tlETVkJaNSOdw0Rqu/OLmrzEn7c5W+QhRPw07YiEvLO8lwV/VUunhL2IKsWxFyjeo4bHlEl4fI8q07pRRlmylFFKaW1ENlrSYG/RNqPWz/X13pOVCfkyxpd1vdSyfUs91+UTIPR4TJRp8fjlfvUIa/i6JVlw2BUHvl0reg6XeXxVSznNfEWtKX6nyFe++iVHKB7yX2YopLdpR7yaJqF+HWck0LFoMK4dyFgSd7gujFNengqngfb5u7VyNEGmbTOaFAmv24QsvC1lnBqbsvPBW9kCujd0WVkLdFcT1o4G6j40SDQ0bX3SqoLyvf2W2dfanT3oKoawUofi/Nrhx07safoDHZ5N2oycbUVZaAxqfNSJfGCKvZmfYaY6Hv+Zkw6Zhi6be5ZeE9+LhCqh39cPimdBzlOQvwEjE164xgIYH1IyQY5YvFZ7jfvS9xEQZJrrCLcFrQrqQ7bJQaTZetlrpSZ/JEHUlgl9uUfIVd7AyMX7KSP9CWq4TrIiqjxFluu5ElWUYqqwyZ9IhDRZPZxGgJAoFYlB8TI0dGKO8z+pYPtFyrJRiuatG1qkDbFHKDqVFaWjEC33M9/yXT9S7RFtYzUF3Iq7pcj7ipHXIbABvAmHvl0reg5HPly4LVpT0MbvlIi145Tz3lVAifdGUUb6NbIUNUBJl94wMDbPyF2F156lNRlqM7g0avyVVuqn1vqKad4BmHds55R0x3LVSmar8WW/cmxIfkaaSGFEWXGcqmh1lg7eFIl/VzdO6pRREgWh87L5Bui+Ea6YdpnyLYbERldo1I1smee2ydkcxG8fy+hnxhSEv9JCVKu1r9ET8p1Uj6ZmJa2S1axuixYmYkaZ9lOcGU/fzcvM1S94XrvjS4xePun4XZbocF6CjXDvpnKFOnjMtEvF1E5vR17MJ3jThR4fnvNRt87l6UHnOvskW27wfPiKuEjyFxQm3/XyH0SeFUQ/leCpm9KfxESVfgey2YKZ/ttOwEEXVR0FYma47UWUZjrS4ijof3mAJmYvGTtYDwzovFTLROvmtjuVTQo6VUiR39Ww47h6uk6px0ecPEw1WbbGMfpcUxbVbfKy42sgGJ+r9Uu57sMTz5XiKnPMze4o9JPwBIuUn3xvlPPcVUCJ9xfHblFW+bIWVs3OYYah3U7aor6+BUNBldwWh3Dh55Y3lrLpBeb8P52M+C2J17wBFBeVbMaL8HFlwuGt49mTbostGySSsLNR7y6vLvEUpWJutLSyf23ikit4HANxyiC/YZp6MvY6uC8fdVW0jDcAtCPdTkxOa13zOypvwDgCbgq1lQQQAbHCUi2Utg1MAuOWQrtUSg1MAqDFQEAEAdUGNOg4a3QwACIYHNYnnRvZTg4UP1Be4mAEAAAAAgAUsiAAAAAAAwAIKIgAAAAAAsNiUCiL3ZQpePFv116jN8Pr1gEeLhaRPzlXEfbSqm6/IhuOpRThhbGw5ywXOS66MUwlh+dX9g0pMPSDTU5PpCSLqz01loz935bAOz4x8pp151qotu/LqmGIrlAMAYKOwKRVENbGtMXGtQ+CasDeDoMaGX948lYCxNq2LOCdnv6//TOlbjoWkmgqiDlOo8ISockWMmk87EURU/QEbH56Pr/Kyq28dAwAAj7oriEuLi/Rwb6+c9JH/8nHFyAXSixfDLmsR85tI4liY8ldqjU5QLoXG/ropbMs7RuuqrIXXH7A1qX8dAwAAh7oriEeOHKGFBaXZ8V8+rhxe+5jcRf8VarkttQ5ykKtF/SZd0zxRL7sg+a9064rNcklqC+CC4/blzVuSp9hlaMQn3Uo8O/qcWi1Bh8uWgHZjOR6XwOsDLJBOmuVBdPqK0Pl05eG6s9XmuetVPpzfS7u17OtNeRd3AzDzxPtGPHIz8muWiyWHUvnOUXq3uWSaH1/+/HFadUAQ9JuE07GLenr17PhB9xnp8y8MJeuPez64nrrnddh2/SmWg5K1KdcS9YHDNdNp5UGHf1af53pQiXx0/XLL35KHWZ7Oc2OkW9Y5Uwbm9X6K5eDPd7SsA1gOD8vOh9iKng9T/iKuef2zxMmrPtSyy5nps8LjsCLqWOgzzJjpiJIfAABEwNPc1JPmpqairSpePSHuPbF6WR/6j6+/eGC1+Sn37OrqG1OrB5zz8loRt3H+8lPm8eXVE3y+f2r1ujy+vjrV750vClufP/GqPpT3H1idekMfCorvMfFfX3y/TLObnuj0WffLvBphSTnYcU29yKGoMA7IfcafJxMdX0S4LE8vLCYgTxrr2qByrSbfRfivFVhx+e818++ThbjPLmv7nJV+KRczXhHWU076xRHXC19+TLldflGds+uPTw5OHG68xeFYyDTasgis/6as5G9lyEenJVQefOwvP6sM+NiuR3Y6THxycMJzrxfHobL2UyIsmY/i/HsyVvd79cKfN3Vsy8W4P0BuXli+sH3PGp83n2FT3lJ+oXkGAIBw6m5BbGuz/SX+47LxuZlzs2mKG+sgq7Unx9yv5yL3c3yU5g1XZOv+UYqnZgyLQYKOHzPWUzzYT7R4tdhactMoI31sDenN03FjCaXcmWGi5Kjhqmylbl5zVvff9NYgVmHaVlqbPnPiVrkGqbkoeZksJKlncZRGdbz+cnQWqZ9zrSBVlovO36Tpfuaw404dYqu0kf6o/qxtQ4bbT1mz89fUfUXpD1of/JDXP5LXM45n87TMBwtpuci7IwumdW9YX0pDDrxYflxUaTdetRB9Ni9DDaac+m+t2lCOfHJ64Xmvr13p8uR65CxUr2RJA4NuveL+xtHlG1UfImQdSHhYKh/mc6POZ8/PqbgWZmhcyFQt0M+I88eETPVRIOJ6t6zl8+PVo8g6FvYMazx5ijNcrpF5BgCAYOquIB49etRVCvkvH1cHL3qf0ApMjmZSopG0Fv83GzR2P5dYpmh7E8X07tZgjkZ6/bPvF+jqIlFshyknzXKeskLhdhcu5603XZ7ypWmMVbiIOrvJeslY2FylL2st+r6LRrJzFKXrlAXnLx7zrYvfQE0tXsPLjSnpBp8/KMhUbCxsN7BcIF8SIV8T01UpFKqs/rlwLU/U0qRlUQkqHyXjjaKM+l9KPuO9/lVSKi9PrkPxWnbGDZF1ZYSUa2PMVb6qL7sw1ljHAABgjdRdQWxuaaEXJiZocWlJ/uXjapEWAbZ6yK/3Dkq4ipBCjnbmBo2tHVR83mLlKolX/BYiQccnRinfa/a7shUiC27s2KokyoXLxt0qGA28nPf3totCNIBy5LZn7XDS1ydHc9vbmjvqG425H7exZUuctG6pDwr7g8OBG+5damSpTtskW70kwfK15MIKy6mYJ+cLnpWpYYdQ0SpQyGtKOfW/hHz6JqYoJpRBrz/cOpZnOUTIujIinhv90RFYdvKjqxoqr2MAAFBr6q4g1hTpWktTT2+a4l0J8er0od1Zw6yIHPQpOtlhSruKk1JWwi1GNrIxMNxxPIBgpLqWIIRGisUNdx677tiaVymN3ZQSjaKpJKopgsyBHDma5gZdNv7DNGx1do9m/JTRcZ5dxSnPRc2WINf9Jsid5IE4HrmTu2ikZapIUeD0jfdGDLCoFqeumAMBdJo9Nym7ZokyZ9IRHxT+Eedsvda7AplvcwqmlWkaM877LU2y64Pel90mRL00yyB3NmAQSC2oqv6Xkg9P5WIrietWnmUQKesKKX5utMyc9478APHJ9FQVz6wkuo6FPsOlkNbUm1MWAIDNx+ZWEGWDxW5N0fgHWntUg5YN6ksWH6XYrOPCUcpKyujHE0nbkPii99yxwzRIxy3TBLu/yRrFXBmq/xK5rrkZ6pzo1+cqZLtQEsW940JJlKMkRdoXJ2IqbTLsfZSXFjQR52nVuKvf1RY16rNPyHbYuVb2dfSsgQ17R4VyPkzt+vzMninq0+eUYib+pvYVxyXSN5/M267uqmToh/N3kY4vGnGye3vJtGCKq9o7RLrSxR8ULkbZynBmiFzrDuc7Zaf/MNGg0QdR9Y310jCcF4qFPsdhOwqWc74nX0u3pUGV9b8c+QyJjxJZd7nc1q08SxMt6wopem52Uabroiczfs70x5g6L5THg9VaLKPrWPgzDAAAteM2Hqmi97ckPM2FnDjZHJzguJ7qMJkyABsO1H8AAAAl2OQWxBKsTNPwUInBKQAAAAAAwGKLKojcybtZjlq0R/ECAAAAAIBSbHkXMwAAAAAAqIyt7WIGAAAAAAAVAwURAAAAAABYbE4FUc7n5UzxYG/2ovUbjI02DxmnR84LyH02K13UX/XzjJQ3r5TSXGm4JioOZ6odHpFerylSNhK5k7p+m3M4VoUtz3WB69SGLaMcJYUc15x/N491kGe1rEc5yOfZeX9VK0sls/LqMsdR/vuj9u+H9Slffp6raadqlz8jXxv5eb0V3iUbnM2pIPI8YM7qCM7G8wSaa5veTKwXqYZ/k6s62PPu3VRYjntmhPLBqzZUNpiHJ7rmlR4i587jueGWajdIiOcYrGRllw1BUF2oBPGS5LWq5Wog5lRNoEK4URyj2IUarOLCz83BPLXL56ZOq8JsOHjOzsrzzosKyBVi1qEub8r3Q7mI94Ccrq0m+VNzwsZOCUUd011VQQ3fJRucuiuIS4uL9HBvr7SI8F8+Xju80kjeWGh/I5Kg0Y34IGplu7KKXqDG/bdqw1hfar/G761L4lgNZzSo6rm51SnQ8o5RyKwKCo39NVaqWUkUijqUw6qo6btkA1N3BfHIkSO0sKDssvyXj9cKL+OWT47aBcbmaXbL6c0z6TvmdfXXOW+aiqUp/2TOc+1Z9we5CAxXCMe7e5iypFdacVy4h3cZy3CZKFO1E4/aRFhXQqyQ7m92+uU9hiumVB4YeY17vxGXNu3nzPOmS2ghTe2HyzH9F7uIQuMsB52uoHjtcPXmpHlD1QX9uw7LH54Jh90+NOeuOMPpioxPUE65u8j6ZJ731SlD1hWXm5lHs8wCLKpOmovi15tXHr7zjjwFpfLNlqv2M2Gp9sdbIn++8nPSZ8sooB6558LC12W5oMol6NqoOIJYNq835CXx5aPovEyPdz45r3+WKJlZeY+QvwprF/X06lWC/M+xrouB9y6Hy8OC82OFG15fivDFb8vVlIP9PiuKo+i8r8xE+q7q3yU6zYHvWuNZadiu1Tj5W3EcTHl1jPGl2ZWZXd6WLCPkEx5vcX1W5WrGE5VOTVXvEn+69ObWgfC64YRR3btki8HT3NST5qamom1NvHpitbl/avW6PnS4/NSJ1ct6X17T5BxfX53q53gPrE69IX9YXX1javWAcXz9xQMyXSdeVcfqfu/85aeaVg+8aMZ4efVEUXhG/DpON7wIvLCL7/Gfa37Ki8HOY+k8yPOG3OSxE5681sijzI8vrACZF2PLJTLOQHwyKDden/w3Vl2ISk8xfhmVii86vYY8/WWqz5lhX35RybqicpPx2XWT0+weB8gjLDz7d3/67LoRne/wOCQiTSd84doyNvCXl7h3SsYp7nvKJyNHZv48v3o5pLy5LIWsXFmrtFgyCIvDjy4HNx/+8vbJx4nLy7dKi79++J+dcuXPx15YvrBl2sy0XF6dkukoJQ8fHKfv2rD6YuM/J8pH7uv4jLKTdTkqPTLf3vVFZSTPG+nyH1vlVJzm0Hpcdh1TYXpyEXnSz3l4GYXJpzh/dvp85afz5q9DZlostGzM/Fb7LrGv9cdr50+G4eZdINNR5rtki1F3C2Jbm+1f8B9XhvgS6U1TX8C6sK2HjL5+bZ3UR3m6anx19ZkTaG/vpsGBOcrMe18JNDDluULa+ul4fI7yy/p4vRBfStzfbFT261PrTI/POl8qvGC/XnN6RaQ120+TpstBpjFNM+aXb2geCjR3fs6Sm1q3dsb7GjP7c0r5EOWvGfKpmDLirAniy/AwT5Dulf9Gqwul0rNmSqZXPDdyEnnDRbqQphGy+/C27uWyqqLcRN2ZN+pm6/5Rildaziu8ClLMq+O6zg+66Wug7oP9xvMhqLacRJkPGeHyc5cNvFHUrVPifWPULb63W8Yp0nPIkFF7B8WzefJCMcq4rdW7v4iE0VVG5ZEWr4qY9XFkHD4inuHcbJriltdFxZUVZS2vWJihcXF/vyNPPn+sxNrSUfJvG/LOidx3mmk5M0xkpaWVut3yiJJHBOXUFx/e+02Uj5tWfj8Y7xKuy47MS76Hi58dlsOkua42E1pOOs2nHKuZDm9PWO0po46FPueCiDJiiuVTzrvBKL/tov0SFSie7Ndpi3rWNLV4l4h0Wm3Cer5Lthh1VxCPHj3qKoX8l4+rhV3L42ZBmlgmcXGd/jmMxlhC790kOL29RJNGnxDrYeMX9sCgeoku5ykbj1Ej/+7SQE0t9gMdzjLls0TjvZ4JXcmoxoqKRXScfndAKddZGDx4JtN10a4TG60uVJieWjPey10ybBmF93WsQV3Z3kQxvVserMBmqOOCoYhxnXdc9c4mPg7LUhbKwHQnSbd+ICyLBMXsB8/DdIXJrgUa0einLnRQZrc6V23dloTFUREFurpIFNvhK+3GmKv81L7vq+3S60npn8PSslYqqi9CQTh9kTrOa/e34W6MpOR7uER9KQf+gMxmaI6fNVZshHLnKe0GZdax6HINK6Mw+VT6blCyWVNZV/wuCWgT1vldspWou4LY3NJCL0xMyA7e/JePq4KtbSnf15sDN8C78zTIIz/lNkV9+lQYy/mwRqEeFFu9FPwVp75G+Yvf/XI0XuR+ynv4GikWF192Fxz5ONt6dryNjlOOQDR+D1T6S2FZYDUbrS5UkZ5a0zcxRbGhXVa/moYd4rUb+IKsQV1ZuSqajPIJ7FPMdZ6tCVYaxFaDTvasHI7FLrphzifDPhBYFiGWBFbc5CwFOl0XfNY2bsDluSki0aBWpSSWiqNsIj4mtcITWB9kw1oNrHioEd+OjD0rWiUfthVQcX1hJUinjfaVpySWfA8H1RelEJcPtwFCMZwvUGE+Q9SVCK/vZdSx8Oc8qoyYIPnchHakwndJYJuwju+SrUbdFcTaoF3LRQqVxv9lx9Y3vevgme0FWtn0TM7RsIXJdcUIpCVT71cDf+GMtARbQlv3sOk7STMifZ3OeWmqF19A5ktM58G9JhI27RONlDXQpATcaJkdh0OpYZxBsOIVNJJ9o9WFMtITRW3qHk9R4lMSpaVimIYNpTF3luVSRbmJcLwBWerjhxy3krQAGF0hRLkNGxY7tiQXvdAZrvNkp682+C1Yym0WjHKJjfcaHeNF+qdFXvyWGW7MXWVK1CmvseZGVe9WSGQcFcLvlezQsDHYQZeTo4BI5cdXjqfSer9S/JY07i6jdwXFacnR9FrLuaL6ItoT411atgeh5HtYKb/2+yVNIxUWGrtV6bzIy1As/L1Ubh0Lfc6jyihMPuv8TmfW8C4JbRNq+S7h9q+cgTablE2pIDqNom3aVpts8LjPgKgA7c7vs1RkpekTFXvYOc+VyHRnlaBh76gV/swenxVI9iPRJmzz5RGEfKGIv3qkqrO5Dzs/0Kk05d1+G4wy+R9fNO5h93QFcyyyxW6yxZARb6XSGgA3WvGor1qDWsVZjHpxZGmORrSLRW6suG60ulBGeqIoGV/ZCCXxgmh4hJKoFHxPaZTpEltPXikjFZeb+DqPzTrXqo8fb75MEc+E+Ohxnt3DRIOOxc55wYtGwYxLKbFc5+308VaVJc5ChMv9j9x3yTDlW8IVBJbFfDLvuad2Z7g9Fr9zdxDveRzOCwVL38PKVt4NP6ALRJlExlEpPE3PRMx4XlS63HKSLstRI92iYT5YrcWylfqTQpFw45ohMq1TRWnZR/k1u5wrqS9CoTLepe3nO6x+b+GUfg+3Hlqyn53ZzuI+iKWQCs0cZQc63XCLKLuOhT3nUWUULp/1e6drqn2XRLUJ6/Yu2XrcxiNV9P4tgqg42pRelRsTGLAs09R0OkSh4i846U4tX+GqL6gLAGwV2PosJ5MuS7nbTOA9BW4Om9TFDDYG/CUWrvxJF1jUVy8AANSEUiN8Ny887x6PPA4cnALAOgIFEdQcZ0RyuzlNCQAA1By2rrGLMLwf96aFPTDOexQDKMBN4BZ0MQMAAAAAgChgQQQAAAAAABZQEAEAAAAAgMUmnebGt5i7i+qPsnGHq+fkIuUbJn3cx0XPYcgyrTRdsq9hWXMg3mR4rqqbms6wcle/u1MtFKXR6V+ltuA6vxY4/uCF/9cDWV9qOQUGAACAdWNTKohqYtV08eSUeo3F8iaLXk+CGl5u7McodmEDTVXAc50dU3MA8koSFaVLKF1ySgl0njaosNwXZogmnJn8L8r5Da0JbPUE6uq8mrcLc3UBAACoB3VXEJcWF+nh3l5pEeG/fFwxPHm0OYO6ZqNPq5I4tp5L2VWJXp7Jm3y0PAqN/VtwvrH1IbTcrcXx1Sod3sL1vJJBgo7vd2TME9km7AXlAQAAgHWi7grikSNHaGFBaXb8l48rh9enJF9jac6DFeRqVr9JN53jcpTL5AS597QlaEFNM6Cu8ZbTKXaVGfHJqQl4pRc9g7sOl+eyaj8T1Lire9106C25EJ4H9zcz/bxZaYrOg8S637R8OfFwGEHnc5TebS6NZeLca+fLb/lypsJxtij3aXGXAttS55SHFWaIKzOoewL/pq6vZ7n7ETIdIk8h5CX44h2UMBTLhvYOiqdm3PTYmGVl59GWdcSyULo+cH4i88roZygXJXOrfiWFZAAAAGwW6q4gOsqhg/+4XNjNTGZjKde49NbAlGummgqkdj+7a1nycl6zndp9p5dDsho40dCfIhp13H/+NTfDkBY5Xv5ML2Je0gXLk02rNPA2z0sFDfB8XgF54Dw6E6Zy4yuXhXPuVUs+2cpPRB7k/bwslL6fl7ryrak53jtDnfr85IAIq4I1N8d7h4mO6bDlkl22Qifn9nLiroX7NLWPhoVswmWhkN0TjLWMWbGyLXX1KneFVE6lAsWyrt7CzMtP5pMX3fwP7lC/S1nz0lha1nKZuKD8GPWp7K4G4hkac2QuyjguysBSIM36dSFGGXOdVAAAABuauiuIbW126+M/Lhufmzk3m6a4sV6xWrd0zFNK/O7n+Ki13iYviG5bZ0RD7y7yLZS4g0IhXbxatoJUFSu8Fq03ubTfYiTzqNc9VvkdNRQKlUZb+QnPg19eao3gDM0ZVsG+CWNNUZZPNk+OA7QUfROGsiOUp0GhYGbmOWZt6TXCZovwmt2nQqn23ORBstDotZDdBeCLLHX1LXdeq1UpdZ00IxTFIKW2XDz3dAO1ig8MV9YHPWVVPRc+K+TytFrU/kKFCqp4hkaNtXsHB4jy11T6i+qXOD/qrpMKAABgo1N3BfHo0aOuUsh/+bg6TKVCWYE62p1mkGE3tKmUGO67ILY3UUzv3hxylNydoY4LhuIkG11HCeY8OhbQAl1dJIr5F7RvjJWpxKn7s9Zi5btoJDtHro5RYxpjjnKwTPlsgmKN+lDTsENIv5aKGMtC79rYlllWZEwF6ubRSkMXRomCBl+ZxGPkE52EFc1J0gvqu90lWNZszXXKmDd2g+fpqvshMEcjvcMUMxX6NRNSPwEAAGwa6q4gNre00AsTE9Jqwn/5uFpcC1tAfy3GdSeye5mKz1usXBXN5s1DuQhNi6CC8yCVGc6jawFtoCYhNsdaYxGiQNio+/vcEbTetl4jrJfzjnuxkWLxEEW0pal2itpynoRuFIhnmVVK980f9R5AgLIvreARMnKskfNdGWqXSiLLWru8rXI2lUFxfoK7ABT3E62e4Prp1QEAAAAbnboriDVle4I6uI9Yr+d6tdBu0+HDwxTzW4myhptRNKXT4hoyXWIRSGuX4aaTi6mHaSNlwP3EehYNd50Ju9JFXEm2dBkL0aupfsyBIjoPQXIIQCqevREDFtbI+Cmjv+JCknpc66e24Flx5ygpyjBsoX22PpruYlamx/W+i9GdwA0vzDKoLbNjB8aEUl5emTO1LvfcSVMGqvzcbhA6jV5/QR7E4gzC8iPuPenJW6ZT7QlZU+m+o43dlJL9RD0lca15lWVmWkNXpmkspfcZ7qMYNWAGAADATWVzK4ha2WAriO1edlANZDZobsT4KMVmHbebmm+u7Kle2oZokhtv7bYbpkE6bvkz2f0tGmZjNGsost/hnFRY2103oNkXjV3laRoXCqQcnOIg0iAHlnAc8p5dlOm6WFEe5IAFI86Saa2APiF3nl9Rhiv7t3mu84a9KV/c++R8gGHWy4a9o7LfoCOfmT08GMTHQAfRYS88HrARZQ2VCrZQeILrTQi1LHdBY8yUgZ7z0OwXe0gNtiktowZqMuQjB4foQTIsazkAy41HbEGDVIRCmprgjwZ9vmReoykq48NEg+iDCAAAm4bbVgV6f0siR3HyhM7mnH1svTgVo3lM8rwO8HQouyh/cP3c1X4Cy7gUqAMAAABAKJvcglgCaZ0rMTgF3IKUcEEDAAAAtzhbVEFkK1Yzteyu9ehMsNlR8w6WdkEDAAAAtzJb3sUMAAAAAAAqY2u7mAEAAAAAQMVAQQQAAAAAABabUkHkfmTBS5Kpvoe1m/C31uQo2byB0rcyTQN6OhaWaaXp4tHDa5oah+Nv9tZoDubmlOma8yax0y77PxrzGiZL5n29qF6mRXLh0eBrllONCEuLnHOxlKxrVx6OjL7Lf4OmFNoobKSyc1mf591sM6p+tsuqR5oNKVsAKmNTKohqkuiAJcl4xZSgOQ/rTlBjwy++MYpdqN/0LyXhue+OqfkKx2IVDtoQL0A5tUwF08TIF7PZYHL81qoe9acoTUwVeSsHudJJJVPxbDTWSS7ri3gWeTqjetUzQ0Z/X/8ENhY8R2fldbjO9QiADUDdFcSlxUV6uLdXTp7Lf/m4Ynh1EXLWKPaQS5G5y9FtPBLHNuDLRSppS+VPsK0pNPZvbmUngq2ct7WwKeUi3hGddVRoUXe2KHWuRwBsBOquIB45coQWFpRmx3/5uHJ4dRFSaxS7FGjuvLMUWZCbQv0m3QyO+Z//Ois9WO4AbQFcYBeoPm8sC1ZsdTLik25TXgpuzlpRg5cqaz/js1RJ1L1uOvSWXAjPg/ubmX7erDRF50Fi3W9aPJ14OIyg8zlK7zaX+bOR8nHvU3Gyi6edV4xJqZVBVB50Gp1wpOyc+/x51+hrlLuodDqLLLlO2YvdsDR5eQsIX8pY/V4cXzSB1kqZxrCwzHh85418uFi/meHyFr6snZMu6QLX1/u7cPA17bt3hYa1bJa5P4+R9TSA0Oud8tCHkqDfFDJfvfvc1VyC7nPiGDh7Vf/u4JNfkKyN88V1xyNcrhHlG4BTTvKvc48pS13+0zq+st4hBiqdqmyduDzC72Oc68PzWkKeRVT5XGgsGYm4rNK1nhMnX+HxybBC65Fdvv5nI/K5AGCjw9Pc1JPmpqairSpePSHuPbF6WR/6j6+/eGC1+Sn37OrqG1OrB5zz8loRt3H+8lPm8eXVE3y+f2r1ujy+vjrV750vClufP/GqPpT3H1idekMfCorvCca8rugeTreTJpkHMw6VhgMvqhSXykOg/PzXGuelfNzzxflzMeXMvHrZ3S+WgRlOsQwvy33jdxm2eU0V6bTyWV6avPC1TI0w7Xrjx86THZcTlq8M3GMdtxm2dd6fNzMuFbZXF3TcvvK10mXKVcbjhW3fq4+ddMlrjbj8ZeQLy4nbTJtFiettGQr4eidt5j7f95Qvzb78m2mQ5WjGK8Jy86DlaefJKDeR5yl5zi6TaLmqNISXbzFOeF66ffmQ9xvxCcqVl/3cBNyn4zLDNonOqzr27vXJ00LLxZCDnbbScpNpMfKizvvk5A8vKr7QeqSvNdJy/cUpFY4/zqJ3FwAbn7pbENva7I5u/uOy8bmZc7Npiif7jfV+B6kvNeZ+CRa5n+OjNG+4glr3j1I8NWN8/SXo+DHHpdBA3Qf7iRavlvjqXSMrvPJLjCZ1uhraO6w0yTx2JWSaVH5HDZe1SmP2/JyRxvA8+OVFbf10nDI0Z3w590146ydL+WTztKyPo8nTVSectlYvjjLIX3NSL+6zqob4wpcTnxf34aw+neXhha8s1zQw6Mqd+8NWXy9E+RhrVMsyiOs6rfvTOnVBYp6XaRHXzOuYzf63CzM0Lur3qNFtQD4PWbt8LQamPLnKeOYoL4WoLfPGqjPq2TKeFTOu7d00KGTklGN59dSj1PVRz4SNuO+QkWa+z6kXWlaDhnxaD/nW924bMuqZKneVpwJNn0pbdY7z3O2rky5hci1ZviGI8LzuIAGyFGVhrtlejrzYytWzKN6Ha3WhhtYhPg6TZzChz3RJuRXXV7WuuN4PIfwdElWPpmksZaelYW+3Vy8ingsANgN1VxCPHj3qKoX8l4+ro5X6kwntZs7RTCpBHe3m681sQPmlUWLJve1NFNO7NwdWgDLUYSoM8qXivPg4j06jVqCri0SxHWZ+BY2xMpUjdX92yHEZ8raLRrLGC71auE/jhQ7KsHtdhBvmkipGvIhPX6SO8zpNPnfMeO/GWP2kMZageKxRH9WaBmpq0bvLecrGY2THpM47jQw3ZKSVA/4AIq3wF67liVqa3EZN0Ugxs8Eum2XKZ1n+Tj3hjbtQGB8BoVRaT8u4PvSZCMB0A4uPC5ENRaBs/dhuzJ6U/lnKI0FrrgJllG9ZsGz0biCl5JUdph7+KF33/nVh8qyQknKrUfmYrKkeAbB5qbuC2NzSQi9MTNDi0pL8y8fV4n4dS4tJByV8A0DkaGduQPmrk4rPW6xcFU3ezSN3khUg03Ki4DxIJZjz6FpAIxqSsl5Y6v6+iSVZDuZWEwWMlUQZ3hSRUCwqUxJVOiZpn6Uk9k1MUUwotP6+cVsLpSBJIpR9V4HaLj6KpNVXfQA5H0gNO8SnTqBVs5qGkxVLtnTa9WSxrNGcldbT8q4PfiZ8cKMuR53q9F4Y9RSpINlazz8rM7sof9DLr2eBqlbR9lFO+ZYDKyl6N4xIecVHaTKZp56IPqprJ0qeFVJSbkHlYzxXlVJpPQJgC1F3BbGmcAMZT1NPb4ibiV0PogEdPjxMMdPlwIgv57SruIgXmLjGscCUQjbAhtuGB6CMlHpLR8CdoNnFY7oEXdiVLuJKzqb1AByFVH6HzA7xOg+B7rZiZKPRuw6Ngnihegohv6z1bklylDQUQrbU2bTSkFA4K1MSVWPhumE5DlFXNg5zNGIMXJL1iLSL0KnbpiVVyLYnZU7j1ECJLqLMmbT9AcR1RtTvYUNOKuwSH0mBqDhGDpcaVBBMpfW0rOtDngkTvxVVdjHR+8pbkKYxQz65M4ZlSDT5thWKLW96V8ojYT87K9M0XfZHkKas8g3A6Dbj1GfLnRpECXk17k3RvE9JrO07LkqeFVJSbuojY/yUUV8X0lWnPboeFaelcHbaqxehsMJcPBAMgI3G5lYQ9cuaLSO2e9lBNW5Zp2+Wifhyjs06Lo9dNNJi9u0pgezTIl4M2u0wTIN03FKE2P0tGlVjFHMost/hnFRY2x03hti8lwe7ytM0LhRIs28Rp2FxIqbikPfsokzXxYryoBoFL87SIwvLQHxV5113pEqTY5VUfdfMEcMmQplbVOd4az/fYfURVQglUXzBE7vGy0prA3Uf09fLcGeoc6Jfn1NEp2m9SdDx2IyXZ8vVp1zuxw2ZtPQSTS4ZXRAEbEWnVNr3AeQp027YLM8q3Yg8b9xki10/yx6RWWk9Lev6kGfCwCxX3obzMcMVWyyfmT1mH0Tj+ZXnZ4gMixfLw3p2dme4+lZIeeVbxIAo78P6+uZyu12UIy9RxvqdJp+Dku+4SoiWZ2WUlhvPN2rV19nOqi2W0fWoOC3t56uoCgBsUG7jkSp6f0vC1jk5ca2pbDhuA8xrBQDYJAS+ywAAYJ3Y5BbEEkjrXInBKQAAAAAAwGKLKoiqjwePOItNYGkkAAAAAIBK2PIuZgAAAAAAUBlb28UMAAAAAAAqBgoiAAAAAACwgIIIAAAAAAAsoCACAAAAAAALKIgAAAAAAMACCiIAAAAAALCAgggAAAAAACygIAIAAAAAAAsoiAAAAAAAwAIKIgAAAAAAsICCCAAAAAAALKAgAgAAAAAACyiIAAAAAADAAgoiAAAAAACwgIIIAAAAAAAs1qAgFmj6QDO1NDvbAE2v6FMAAAAAAGDTUqWCmKNk8y7KH1yixSW9XeggWlZnC2cHqOVkTh0AAAAAAIBNRXUK4spVylM/dbbpY2Z7N3WbxwAAAAAAYFNSnYK4vYlilKaZBX1skDvZTO1Dc0SpfdL1nNTXSKui6452flduaucahf4tM00DzUmy7JAr/Bu7stU1A2cL+gQAAAAAAKgVVbqYW2nowijle1nZs5W41kNLNJ9MEA1MSdfzkLQqFmgu30Hz2h3N58dPTYtfGyjRJfZnjRAW0jRCo9TfkaCOuK2EFuYzlB0YpO7t+gcAAAAAAFBzqh+ksr2bUqzwTRD1sFUwss9hA3Uf6hb/66P2Dopn87LLotxPzbhKZm42TXGhNDbwPQf7tSLJCCXz/Bz17WkV++Lc6SVK7XVCBAAAAAAAtaJ6BdGhbYgWly7S8cV90S7fhaTnYt49TFn9MyuagwOOpTBHM6l+GnQUv7ZO6stmaI5HR6/MUYYti+jnCAAAAACwrqxdQZQoV3E2r4cx+2Hl8FTMdTEvXhiluD7FtO7pV27mhRkaH+gkthEqWqlzQCiG8wXpXiZpWQQAAAAAAOtJdQriyjQlLWuhcv/GY4362KZwLU/U0uQqd7Ivod6XsKUwNUPJ2bR2IXu07h8lOj9Mw0Mxz7Io4sMgFQAAAACA9aE6BXF7E9HQLs9l3LyLMl0X3T6BDXsHhcLnjWI2j3kbzscsC6KyFKZpfDHAhbw9QR00R1nLsggAAAAAANaL21YFen+DwtZCNSm3GhENAAAAAADWkxr1QVw/CmeH1bQ3UA4BAAAAAOrCxlUQ5aTYPOl2jCZPe1PkAAAAAACA9WUTuJgBAAAAAEA92fAuZgAAAAAAUF+gIAIAAAAAAAsoiAAAAAAAwAIKIgAAAAAAsICCCAAAAAAALKAgAgAAAAAACyiIAAAAAADAAgoiAAAAAACwgIIIAAAAAAAsoCACAAAAAAALKIgAAAAAAMACCiIAAAAAALCAgggAAAAAACygIAIAAAAAAItNqyDmTjZTS7O5JSmnz91cCjR9oJkGzhb0MQAAAADA5mJTWxDjyYu0uLQkt8mBNPWcvPkqYu7kLsofXKLU3gb9ywZnZZoGNoxyDQAAAICNQN0VxKXFRXq4t1da/fgvH9eC1j39RItX6eba7QrUuH+Jhtr0IQAAAADAJqTuCuKRI0doYWFB7vNfPl47BZo+laa+g92k7HY5SjYP0PSKPFAsJKnlwLRSIHnfck+LzTknKJwdMM4Z1jUdRs48b1otF9LUftgLx0O5nZMq2xr9WybAgieteir9Mi0iDitNVpzRaXLu9zDSwvfuHqYspanHuk9d44bnlyUAAAAAtjR1VxAd5dDBf1wJ2aFdWoHZRSMtU+Vb7tqGXNf04tIU9VGCjh9TyiUrVO3nO2hen59P5m3XdXaYxmhU3XthlOKpfT7FL4gGSnQlaHzWVOzSNCLC6e9IUEc8TTNGGIX5DGUHBql7u/5BxDHsxLl0kY4v7rP7OFaVJgHLga+nfprkew+1ih9ZOVTyVPGJbSJGI7vhhgYAAABuFequILa12Vqc/7gSzD6I87ExywpYLrmT+yifHNXKWIHmzs8Zlkih2u0dpL7UjKccxUdp1OlfuL2bBgeI8tdKx9rQ3iEUNy+c3Gya4kJpbBD/ug/20/gpJ+06DXtYWdMMTBl9GtX1WXGNG2uVaQpkZY4yWaEwSmVR09ZPx31KLAAAAAC2LnVXEI8ePeoqhfyXj2tBw95ROk4ZmqvAFcrWwh4yla9lymeJxntN9+o+Gqc8XV2ri1Uqbo6SlaOZVD8NOvG2dVJfVqedFTS2LEbpzY0xiuvdmrOcp2w8Ro36UNFATS1rUDoBAAAAsKmou4LY3NJCL0xMSKsf/+Xj2qCUu7JZmabhoZhtKRNqUSyeoOMXtGvV3VKeu3cN8EAa6WZemKHxgU7yYm6lzgGhGM4XpHuZpGUxAlbi9G7NYeUzmxfSLCa2IzJVAAAAANgi1F1BXC8KZ8doPN5BCanIsaKnFC5FjpK9ab3PiOPdwxSbGDKUNIb7ChKNBA40qQFsKUzNUHI2bbuQBa37R4nOD0ul1bUsOqTGjEEiKi+mGzyKhh0xcb/n2i6cHaaRKO1yu+oTafW7XEhST6qfOqVVUw1gwTyPAAAAwNZlUyuI3iCVZmpna+BpR2lqoO5jQuFyz89Q50S/PMNwv8Nx8dd2JatBGA17UzTZMkzt7u9is0YBrwW2FKZpfDHAhcyKGc1R1rIsagY6iA476eE+kxcrGpAj54jUeRmmQTpu+qe169sbxSxkd1oNhHHz30s0ueRXpgEAAACwVbltVaD3wU1FjR7mSbZN5U+Oqs4P6hHGAAAAAADrz5ZxMW92pOu31OAUAAAAAIA6AAXxZiMnxfa7yAEAAAAAbh5wMQMAAAAAAAtYEAEAAAAAgAUURAAAAAAAYLFpFcTcST0Fi7ttlLWCMU8gAAAAADY3m9qCaK7FLOf6q9l8hdWTO6mmqvGW79vgyEEyG0W5BgAAAMBGoO4K4tLiIj3c2yutfvyXj2sBL2NHi1fXZwWUsilQ4357HkMAAAAAgM1G3RXEI0eO0MLCgtznv3y8dgo0fcpcfi5HyeYBY3k6wUKSWg7oJfR433JPi805J+DJqb1zhnVNh5Ezz1tL0qWpPWSZPjtM372+9JjuaXmfuM6634ozOk3sirfd3YZs+N7dw5QlcyUVRrnJ3fD8sgQAAADAlqbuCqKjHDr4jyvBW2pvF420TFW0/Jzjml5cmqI+StDxY0q5lCuXnO+geX1+Ppm3XdfZYRqjUXXvhVGKp/ZRsows8BJ+bpx8H/XTpF4dJTfLS9npcxP9Il9p2+Ur4hh24lxSy+BZSl+VaZJycNLC98r0qBVdWJ5ueidiNLIbbmgAAADgVqHuCmJbm63F+Y8rweyDOB8bs6yA5cLrMueTo9S9nY8KNHd+zrBEsmI3SH2pGU85io/SqNO/UK5jTJS/VkmsQgE7PEyxCW9t49ZDxjrHbZ1CYc3TVdNiNzBl9GlsoO6DQokU6XRjXXOaDFbmKJP1lFdJWz8dj6dppnpdHgAAAACbiLoriEePHnWVQv7Lx7WgYe8oHacMzVXgCmVrYQ+Zytcy5bNE472me3UfjfsVtjXAg1gyXRdta6deTcWLrwSNMYrr3ZqznKdsPEaN+lDRQE0ta1A6AQAAALCpqLuC2NzSQi9MTEirH//l49qglLuyEUrZMC9vZ1rKhFoUiyfo+AXtWnW3lLYwrpGFJPUsGtY+hpXD3XkadONil3cJWInTuzWHlc9sXkizmNgOI90AAAAA2LLUXUFcLwpnx2g83kEJqcixojdHmXnH4pWjZG9a7zPieLft5lU0UKKLaCRkoMmaYEWwN+/2dXTxW+wWZootiKkxY5CIyovpBo+iMZaw3NHsUo+0UG5PUEfcN2UQK7apfupkq6e0dmLQCgAAALCV2dQKojdIpZna2Rp42lGaGqj72CiRe36GOif65RnGUZJsV7IahMGDSSZbhqnd/V1sprJUFarfYZbmaGS3ES73meT+fWTEN0vFFsSBDqLDzn3cZ9Lnoo5Aud698Gf2+CyUss+iOYpZyO60GgjjprOXB9H4lWkAAAAAbFVuWxXofbABkaOq84N6hDEAAAAAwPqzZVzMAAAAAACgNkBBBAAAAAAAFnAxAwAAAAAAC1gQAQAAAACABRREAAAAAABgsTkVxIWkNwWLb7PWKF5HeHRxNUv7AQAAAABsdLZOH0RWGk/FaN6dC3Ed4bhmOzH1DAAAAAC2JHW3IC4tLtLDvb3S2sd/+Xjt8OoiAauUrBOFxn4ohwAAAADYstRdQTxy5AgtLCzIff7Lx2uFV0bJJ0fd9ZJzJ4tdzdZvfhe1tVKKUDZ5KbkFXlLOuUatsqLIUXr3MJaaAwAAAMCWpe4KoqMcOviPK4bXCV4cpdG9nu2wdU+/tf4wrx88luqnQb6GlUO2Nl5YosUl3tSycrZCOUcjp4hGnfP+tYkBAAAAALYwdVcQ29rsRYT9x5XBruU09R30uZbbOqkvm6E5beUrzGcoO9Ap1xLOzaYpblgb5drDB30KJSUMd7U6T4tXMSAFAAAAALcEdVcQjx496iqF/JePq4Vdy+MDUzRUpGO2Un+SKDPPKl2B5s4THd/P6mGBri4SxXb4eio2xiiezdOyPgQAAAAAuJWpu4LY3NJCL0xMSPcu/+XjqmDXcqqfJkMGizS0dxCxVXBljjLUQQlpMWygJhFd/lqALTAeo0a9CwAAAABwK1N3BbE2aNfyxJB0GweyPSHUwgylz2SIuhKuC1r2TxwyB5kUaPrwsHVN+Yh7D9Rv7kUAAAAAgHqwKRVE6VoWf8d7jZHIevOUtQZKdIlrUjE1OMWhbYgWJ2I0stu5Zxdlui5SyrwGAAAAAOAWZutMlA0AAAAAAGrCJnUxAwAAAACA9QIKIgAAAAAAsICCCAAAAAAALKAgAgAAAAAACyiIAAAAAADAAgoiAAAAAACwgIIIAAAAAAAsoCACAAAAAAALKIgAAAAAAMACCiIAAAAAALCAgggAAAAAACygIAIAAAAAAAsoiAAAAAAAwAIKIgAAAAAAsICCCAAAAAAALKAgAgAAAAAACyiIAAAAAADAomoFMXeymVqazS1JOX2OqEDTB5opuSB2F5LUcmCaCivTNNA8QNMr6or1J0dJkS6ZBkHh7AC1nPRSuJ6UikueZ5no4yjWNd1O2ejDWmCld01lbpdfxci4uV7Wos5xWtaz7hrPywakkvoKAABga7AmC2I8eZEWl5bkNp/MU4+rJDZQ9+mLFDslGuhTMZo/3U0N27sptZSi7u3ygjrQSkMiXUNt+nAD0bA3RYssE31cLeuqPNaCNZX5WspPKFyHhyk2wXWznnVuCyI+ItrzgzWpr/VhvZV5AAC4NaiZi7lh7ygdj+fpqvtiZiVRNNCbpmEBW4dlymcTFGvUh6BqCo39tHioVR8BAAC4VahhH0RulPWu8xV/Nqncz9LKFf5lz+7qgbO2A8v5TVrJpKvQ2GR4jltOuSLVOTP8KLedOue4zYrjL2WF0PcHxuthpd209BW5ds08FMvCw0v310Wa24fmiFL75D0yn9Ktarr6dRpKWBmXw9LJcFqdcyXPJ0mkyMCWo5MWs3tCqbxa5WfFFVI+Ugb7aFykZGS3uE7KOaA8rTLQ5xcctzRvthwtdDrctLnubLV5efLVkxLl4L/ezHt0HbXrj9qM/IbKzZGxeb95Pkfp3cO23DThz+x3i8tNxyOvd+RupqnoWYgoi6g6Hlj2jE8+VnwAAACCqJmCWDg7RuPxDkq47jzxks53Khd0CQtE655+yp6f817a4kU/luqnwb0Nyh2r3diLF0YpTv00aYQ33jtDnfr85ICI83Cplz83VrtopGWqSuumcb+TromYaJB8CoVQ3IZpVF9zkY4v7itqUBXceO0jku5Q3qYoNhTUKNvp/tAhdusniAZUOqp2pWeHacxJJ8tXpNtt3LkR783T8QtO2nz5kOeJJuU5vj9GGVZaoxDhz+zR10+Icg/MawD+uFjmQWUt3dpT1EcJle6yy1jUnVNEozJ8kc94mnqCFDpDJlLmrJTszlCHK6Mp6pAXqvLKdDndMJTsbMXJZrx3mOiYDkeURb7XVNaiUO54FQ8/B9z9Y1S51suQW+XPUNQz+4uU6ErQ+Kwhu5U5ymTV8ywRda59Vr8bOM4WcWzJusyy8BNW9gsz1vPVJ+JPR5QDAACANSqI2aFd7ld5+/kO1ddQnyN+Se8v0zXV1ile2hma041hYT5D2YFO0eyZiAZX9isbsn7vM45b9wsFJ5unZX0cRO6kVrKqdZvpxs5UUqmtXzZiM2ajIxS3lNMgCql0H/Q1qA6i8RqPj1K/q+C1Un+SKDNvX7nmdIch4h510ika2EGhXOSvqbhzs2lP0ZDY+VDn+73yEPePstIahZCLq8xKuc1RPqrANEVx8b3k1Zm1I+rrMaf+qnzS4lW7vJaFMiiVQ69fY+6MUOosGbVSN8vTrxTpMC3FyUffhNFfUpaFCMNXD0oiFMKeRa9My5Fbpc+QJOKZbdg7SH2pMVe5LXqeRZ2bN+qxjDM1Y3xglVEWldA2ZHxAtVKnUccBAAAEU7NBKmvra2gqRQWaO09FyiUrSGyNqdpSxqT2ycbTbJwqZjlP2XiM7O5tDdTUUqLRaYxRXO+aFK7llUXFcIGx6zhrak21SHfFFOjqIlFsh69UOR9SgQg5vy6ouMwPkpZmoTBny1Mua8McjfTyB4o56CVCBlxPKE09Rrm29KYrUnQaYyWUbT9szWRrofssrqfcop5ZVsIc5Tb4ebbY3kQxvbs+sDXXK4eelP4ZAABAKDXsg7g2Gto7iNgyxZYXMl3VAp9VpGoGppQ7ay19kFwFqZhIZUkqDMU07BBNo3YTW5upDNYi3RUTofRKBTn4/HK+hIu5KlRcfa6b0NvW9MFQEQk6PsFuX7N/XYSMuJ6wpcyX3ko+pCqTZZCFfX3lFvXMui7ooOfZz8pVEp9J64Ry9ecPenlnFzwAAIBoNoyCSNsTohnJUPpMhqgr4TWi0iqSN1xOa6P1kO7zZChbbKkx3b+5k9zRPQROp79PFCuwqX7qNBtdw8UmQqRkb5r6DgbkgV11Zr+/EILSXYS0xBiubiG74VJ9AiOQjbzVR1ApIU75SLkNpT3XoOyHpvdrDKdlvDdi4EgkjRSLm+5aVR4V09hNKdk30FMSi2WUo2nuoynr8zANB/Y7DWb8lFG2uk45LupSddTpguBX/NYmtxKEPbOMdmUPs9Lqr/dWH0Bdp0w3eBQV13H/iPYczRh1VA6YKqd/IwAA3GJsHAVRNCGJLtFIpmJGvy3VeGSdUYmOm2yNlrTWQxdF48VuXTUIQE7RI49V+DN7uKN7GA1yjkcecOCmRw4CsPtG0kAH0WF9vnkf5ZNh7vFWGtJKhxueNZLUozjd3NfLGMXMYU2wQqDDOUw0WKpPYBRtQ3oAjpMu5eZ3+lbyACI1/2WN4otCpMWKi7ey64Eos2OjRK6rdYY6hZyqggdCODJmxaJIRqKspSWZ6wkPODLdu/7RvTZ9ov4PO9fKvo5enYqso1KZFH91XbDiWpPcShH0zDqoc9ms78OJiY9SbNZJj1Jsvf66pShVx5Xr2xvFbBzL+GbEs6kvBQAAEMptqwK9D+oET8shJx+ua5/CzQaP7h6jmDEgBGwuAuu5UGbdyfP1TwAAADYeG8iCeKvAnfbnqG8PlMNI5OjuEn3XwMZFun5LDE4BAACwYYGCWDe4szy7uIL7igENW5jYFVjDfqegnuh6vts/4hsAAMBmAi5mAAAAAABgAQsiAAAAAACwgIIIAAAAAAAsoCACAAAAAAALKIgAAAAAAMACCiIAAAAAALCAgggAAAAAACygIAIAAAAAAAsoiAAAAAAAwAIKIgAAAAAAMCD6/wEF8sYC6tMwlgAAAABJRU5ErkJggg==;fillColor=#B2C9AB;strokeColor=#788AA3;fontColor=#46495D;" parent="1" vertex="1">
          <mxGeometry x="100" y="10" width="648" height="365" as="geometry" />
        </mxCell>
        <mxCell id="gzo2VirUwYGkiK3Seass-2" value="" style="ellipse;whiteSpace=wrap;html=1;aspect=fixed;fillColor=#B2C9AB;strokeColor=#788AA3;fontColor=#46495D;" parent="1" vertex="1">
          <mxGeometry x="160" y="415" width="20" height="20" as="geometry" />
        </mxCell>
        <mxCell id="gzo2VirUwYGkiK3Seass-3" value="" style="endArrow=classic;html=1;rounded=0;entryX=0;entryY=0.5;entryDx=0;entryDy=0;fillColor=#B2C9AB;strokeColor=#788AA3;fontColor=#46495D;" parent="1" target="gzo2VirUwYGkiK3Seass-4" edge="1">
          <mxGeometry width="50" height="50" relative="1" as="geometry">
            <mxPoint x="170" y="435" as="sourcePoint" />
            <mxPoint x="210.5" y="540" as="targetPoint" />
            <Array as="points">
              <mxPoint x="170" y="540" />
            </Array>
          </mxGeometry>
        </mxCell>
        <mxCell id="gzo2VirUwYGkiK3Seass-4" value="" style="rounded=1;whiteSpace=wrap;html=1;fillColor=#B2C9AB;strokeColor=#788AA3;fontColor=#46495D;" parent="1" vertex="1">
          <mxGeometry x="240.5" y="525" width="120" height="30" as="geometry" />
        </mxCell>
        <mxCell id="gzo2VirUwYGkiK3Seass-5" value="" style="endArrow=classic;html=1;rounded=0;exitX=1;exitY=0.5;exitDx=0;exitDy=0;entryX=0;entryY=0.5;entryDx=0;entryDy=0;fillColor=#B2C9AB;strokeColor=#788AA3;fontColor=#46495D;" parent="1" edge="1">
          <mxGeometry width="50" height="50" relative="1" as="geometry">
            <mxPoint x="360.5" y="531" as="sourcePoint" />
            <mxPoint x="450.5" y="531" as="targetPoint" />
            <Array as="points">
              <mxPoint x="400.5" y="531" />
            </Array>
          </mxGeometry>
        </mxCell>
        <mxCell id="gzo2VirUwYGkiK3Seass-6" value="" style="rounded=1;whiteSpace=wrap;html=1;fillColor=#B2C9AB;strokeColor=#788AA3;fontColor=#46495D;" parent="1" vertex="1">
          <mxGeometry x="450.5" y="525" width="120" height="30" as="geometry" />
        </mxCell>
        <mxCell id="gzo2VirUwYGkiK3Seass-7" value="" style="endArrow=classic;html=1;rounded=0;fillColor=#B2C9AB;strokeColor=#788AA3;fontColor=#46495D;" parent="1" edge="1">
          <mxGeometry width="50" height="50" relative="1" as="geometry">
            <mxPoint x="450.5" y="549" as="sourcePoint" />
            <mxPoint x="360.5" y="549" as="targetPoint" />
          </mxGeometry>
        </mxCell>
        <mxCell id="gzo2VirUwYGkiK3Seass-8" value="" style="endArrow=classic;html=1;rounded=0;exitX=1;exitY=0.5;exitDx=0;exitDy=0;entryX=0.582;entryY=-0.065;entryDx=0;entryDy=0;fillColor=#B2C9AB;strokeColor=#788AA3;entryPerimeter=0;fontColor=#46495D;" parent="1" edge="1">
          <mxGeometry width="50" height="50" relative="1" as="geometry">
            <mxPoint x="516" y="556.95" as="sourcePoint" />
            <mxPoint x="516.84" y="689" as="targetPoint" />
            <Array as="points">
              <mxPoint x="516" y="596.95" />
            </Array>
          </mxGeometry>
        </mxCell>
        <mxCell id="gzo2VirUwYGkiK3Seass-9" value="" style="rounded=1;whiteSpace=wrap;html=1;rotation=0;fillColor=#B2C9AB;strokeColor=#788AA3;fontColor=#46495D;" parent="1" vertex="1">
          <mxGeometry x="451.5" y="689" width="120" height="30" as="geometry" />
        </mxCell>
        <mxCell id="gzo2VirUwYGkiK3Seass-10" value="" style="endArrow=classic;html=1;rounded=0;fillColor=#B2C9AB;strokeColor=#788AA3;exitX=0.423;exitY=0.008;exitDx=0;exitDy=0;exitPerimeter=0;fontColor=#46495D;" parent="1" source="gzo2VirUwYGkiK3Seass-9" edge="1">
          <mxGeometry width="50" height="50" relative="1" as="geometry">
            <mxPoint x="502.5" y="645" as="sourcePoint" />
            <mxPoint x="502.5" y="555" as="targetPoint" />
          </mxGeometry>
        </mxCell>
        <mxCell id="gzo2VirUwYGkiK3Seass-14" value="" style="curved=1;endArrow=classic;html=1;rounded=0;exitX=0.25;exitY=0;exitDx=0;exitDy=0;entryX=0.75;entryY=0;entryDx=0;entryDy=0;fillColor=#B2C9AB;strokeColor=#788AA3;fontColor=#46495D;" parent="1" source="gzo2VirUwYGkiK3Seass-4" target="gzo2VirUwYGkiK3Seass-4" edge="1">
          <mxGeometry width="50" height="50" relative="1" as="geometry">
            <mxPoint x="340.5" y="610" as="sourcePoint" />
            <mxPoint x="390.5" y="560" as="targetPoint" />
            <Array as="points">
              <mxPoint x="300.5" y="460" />
            </Array>
          </mxGeometry>
        </mxCell>
        <mxCell id="gzo2VirUwYGkiK3Seass-15" value="" style="curved=1;endArrow=classic;html=1;rounded=0;exitX=0.25;exitY=0;exitDx=0;exitDy=0;entryX=0.75;entryY=0;entryDx=0;entryDy=0;fillColor=#B2C9AB;strokeColor=#788AA3;fontColor=#46495D;" parent="1" edge="1">
          <mxGeometry width="50" height="50" relative="1" as="geometry">
            <mxPoint x="270.5" y="555" as="sourcePoint" />
            <mxPoint x="330.5" y="555" as="targetPoint" />
            <Array as="points">
              <mxPoint x="300.5" y="615" />
            </Array>
          </mxGeometry>
        </mxCell>
        <mxCell id="gzo2VirUwYGkiK3Seass-16" value="" style="curved=1;endArrow=classic;html=1;rounded=0;exitX=0.25;exitY=0;exitDx=0;exitDy=0;entryX=0.75;entryY=0;entryDx=0;entryDy=0;fillColor=#B2C9AB;strokeColor=#788AA3;fontColor=#46495D;" parent="1" edge="1">
          <mxGeometry width="50" height="50" relative="1" as="geometry">
            <mxPoint x="480.5" y="525" as="sourcePoint" />
            <mxPoint x="540.5" y="525" as="targetPoint" />
            <Array as="points">
              <mxPoint x="510.5" y="460" />
            </Array>
          </mxGeometry>
        </mxCell>
        <mxCell id="gzo2VirUwYGkiK3Seass-17" value="" style="curved=1;endArrow=classic;html=1;rounded=0;exitX=0.25;exitY=0;exitDx=0;exitDy=0;fillColor=#B2C9AB;strokeColor=#788AA3;fontColor=#46495D;" parent="1" edge="1">
          <mxGeometry width="50" height="50" relative="1" as="geometry">
            <mxPoint x="460.5" y="555" as="sourcePoint" />
            <mxPoint x="490.5" y="555" as="targetPoint" />
            <Array as="points">
              <mxPoint x="470.5" y="585" />
            </Array>
          </mxGeometry>
        </mxCell>
        <mxCell id="gzo2VirUwYGkiK3Seass-18" value="" style="curved=1;endArrow=classic;html=1;rounded=0;exitX=0.25;exitY=0;exitDx=0;exitDy=0;fillColor=#B2C9AB;strokeColor=#788AA3;fontColor=#46495D;" parent="1" edge="1">
          <mxGeometry width="50" height="50" relative="1" as="geometry">
            <mxPoint x="530.5" y="555" as="sourcePoint" />
            <mxPoint x="560.5" y="555" as="targetPoint" />
            <Array as="points">
              <mxPoint x="540.5" y="585" />
            </Array>
          </mxGeometry>
        </mxCell>
        <mxCell id="gzo2VirUwYGkiK3Seass-19" value="" style="curved=1;endArrow=classic;html=1;rounded=0;exitX=0.25;exitY=0;exitDx=0;exitDy=0;entryX=0.75;entryY=0;entryDx=0;entryDy=0;fillColor=#B2C9AB;strokeColor=#788AA3;fontColor=#46495D;" parent="1" edge="1">
          <mxGeometry width="50" height="50" relative="1" as="geometry">
            <mxPoint x="480.5" y="719" as="sourcePoint" />
            <mxPoint x="540.5" y="719" as="targetPoint" />
            <Array as="points">
              <mxPoint x="510.5" y="779" />
            </Array>
          </mxGeometry>
        </mxCell>
        <mxCell id="gzo2VirUwYGkiK3Seass-20" value="" style="curved=1;endArrow=classic;html=1;rounded=0;exitX=0;exitY=0.5;exitDx=0;exitDy=0;entryX=0.008;entryY=0.9;entryDx=0;entryDy=0;entryPerimeter=0;fillColor=#B2C9AB;strokeColor=#788AA3;fontColor=#46495D;" parent="1" source="gzo2VirUwYGkiK3Seass-9" target="gzo2VirUwYGkiK3Seass-6" edge="1">
          <mxGeometry width="50" height="50" relative="1" as="geometry">
            <mxPoint x="340.5" y="660" as="sourcePoint" />
            <mxPoint x="400.5" y="660" as="targetPoint" />
            <Array as="points">
              <mxPoint x="325" y="660" />
              <mxPoint x="425" y="610" />
            </Array>
          </mxGeometry>
        </mxCell>
        <mxCell id="6ZZP5vL4EGLWUWOe5d7C-1" value="&lt;b&gt;1&lt;/b&gt; sec/time = time + &lt;b&gt;1&lt;/b&gt; second" style="text;html=1;strokeColor=none;fillColor=none;align=center;verticalAlign=middle;whiteSpace=wrap;rounded=0;fontColor=#46495D;" parent="1" vertex="1">
          <mxGeometry x="200.5" y="470" width="200" height="20" as="geometry" />
        </mxCell>
        <mxCell id="6ZZP5vL4EGLWUWOe5d7C-4" value="turn &lt;b&gt;off&lt;/b&gt; the alarm" style="text;html=1;strokeColor=none;fillColor=none;align=center;verticalAlign=middle;whiteSpace=wrap;rounded=0;fontColor=#46495D;" parent="1" vertex="1">
          <mxGeometry x="374" y="557" width="60" height="30" as="geometry" />
        </mxCell>
        <mxCell id="6ZZP5vL4EGLWUWOe5d7C-6" value="&lt;font color=&quot;#ffffff&quot;&gt;alarm &lt;b&gt;off&lt;/b&gt;&lt;/font&gt;" style="text;html=1;strokeColor=none;fillColor=none;align=center;verticalAlign=middle;whiteSpace=wrap;rounded=0;fontColor=#46495D;" parent="1" vertex="1">
          <mxGeometry x="270.5" y="530" width="60" height="20" as="geometry" />
        </mxCell>
        <mxCell id="6ZZP5vL4EGLWUWOe5d7C-7" value="set time" style="text;html=1;strokeColor=none;fillColor=none;align=center;verticalAlign=middle;whiteSpace=wrap;rounded=0;fontColor=#46495D;" parent="1" vertex="1">
          <mxGeometry x="270.5" y="587" width="60" height="20" as="geometry" />
        </mxCell>
        <mxCell id="6ZZP5vL4EGLWUWOe5d7C-9" value="set time" style="text;html=1;strokeColor=none;fillColor=none;align=center;verticalAlign=middle;whiteSpace=wrap;rounded=0;fontColor=#46495D;" parent="1" vertex="1">
          <mxGeometry x="442.5" y="572" width="60" height="20" as="geometry" />
        </mxCell>
        <mxCell id="6ZZP5vL4EGLWUWOe5d7C-10" value="set time of wakeing up" style="text;html=1;strokeColor=none;fillColor=none;align=center;verticalAlign=middle;whiteSpace=wrap;rounded=0;fontColor=#46495D;" parent="1" vertex="1">
          <mxGeometry x="527.5" y="572" width="140" height="20" as="geometry" />
        </mxCell>
        <mxCell id="6ZZP5vL4EGLWUWOe5d7C-12" value="set time of wakeing up" style="text;html=1;strokeColor=none;fillColor=none;align=center;verticalAlign=middle;whiteSpace=wrap;rounded=0;fontColor=#46495D;" parent="1" vertex="1">
          <mxGeometry x="334" y="505" width="140" height="20" as="geometry" />
        </mxCell>
        <mxCell id="6ZZP5vL4EGLWUWOe5d7C-13" value="&lt;b&gt;1&lt;/b&gt; sec/time = time + &lt;b&gt;1&lt;/b&gt; second" style="text;html=1;strokeColor=none;fillColor=none;align=center;verticalAlign=middle;whiteSpace=wrap;rounded=0;fontColor=#46495D;" parent="1" vertex="1">
          <mxGeometry x="410.5" y="470" width="200" height="20" as="geometry" />
        </mxCell>
        <mxCell id="6ZZP5vL4EGLWUWOe5d7C-15" value="&lt;b&gt;[&lt;/b&gt;time = time of buzz&lt;b&gt;]&lt;/b&gt;" style="text;html=1;align=center;verticalAlign=middle;whiteSpace=wrap;rounded=0;fontColor=#46495D;" parent="1" vertex="1">
          <mxGeometry x="395.5" y="630" width="106.5" height="30" as="geometry" />
        </mxCell>
        <mxCell id="6ZZP5vL4EGLWUWOe5d7C-16" value="&lt;b&gt;30&lt;/b&gt; second from buzzing" style="text;html=1;strokeColor=none;fillColor=none;align=center;verticalAlign=middle;whiteSpace=wrap;rounded=0;fontColor=#46495D;" parent="1" vertex="1">
          <mxGeometry x="517" y="640" width="140" height="20" as="geometry" />
        </mxCell>
        <mxCell id="6ZZP5vL4EGLWUWOe5d7C-17" value="&lt;font color=&quot;#ffffff&quot;&gt;alarm &lt;b&gt;on&lt;/b&gt;&lt;/font&gt;" style="text;html=1;strokeColor=none;fillColor=none;align=center;verticalAlign=middle;whiteSpace=wrap;rounded=0;fontColor=#46495D;" parent="1" vertex="1">
          <mxGeometry x="481.5" y="530" width="60" height="20" as="geometry" />
        </mxCell>
        <mxCell id="6ZZP5vL4EGLWUWOe5d7C-18" value="&lt;font color=&quot;#ffffff&quot;&gt;rings&lt;/font&gt;" style="text;html=1;strokeColor=none;fillColor=none;align=center;verticalAlign=middle;whiteSpace=wrap;rounded=0;fontColor=#46495D;" parent="1" vertex="1">
          <mxGeometry x="481.5" y="694" width="60" height="20" as="geometry" />
        </mxCell>
        <mxCell id="6ZZP5vL4EGLWUWOe5d7C-20" value="set alarm&lt;b&gt; off&lt;/b&gt;" style="text;html=1;strokeColor=none;fillColor=none;align=center;verticalAlign=middle;whiteSpace=wrap;rounded=0;fontColor=#46495D;" parent="1" vertex="1">
          <mxGeometry x="286.5" y="640" width="74" height="20" as="geometry" />
        </mxCell>
        <mxCell id="B3Akd6wOyCjDWJr605Az-1" value="&lt;b&gt;1&lt;/b&gt; sec/time = time + &lt;b&gt;1&lt;/b&gt; second" style="text;html=1;strokeColor=none;fillColor=none;align=center;verticalAlign=middle;whiteSpace=wrap;rounded=0;fontColor=#46495D;" vertex="1" parent="1">
          <mxGeometry x="411.5" y="750" width="200" height="20" as="geometry" />
        </mxCell>
      </root>
    </mxGraphModel>
  </diagram>
</mxfile>
